<?xml version="1.0" standalone="yes"?>
<svg xmlns="http://www.w3.org/2000/svg" width="130" height="130">
<path style="fill:#5de1e7; stroke:none;" d="M0 0L0 130L130 130L130 0L0 0z"/>
<path style="fill:#143031; stroke:none;" d="M17 58L16 61L17 61L17 58M80 58L79 61L80 61L80 58z"/>
<path style="fill:#020404; stroke:none;" d="M17 59L16 74L18 74L20 65L21 65L23 74L24 74C23.9573 69.2867 23.8875 64.12 18 65L17 59M80 59L79 74L81 74L82 65L86 74L87 74C86.9573 69.2866 86.8875 64.12 81 65L80 59z"/>
<path style="fill:#41a0a3; stroke:none;" d="M48 60L49 61L48 60z"/>
<path style="fill:#143031; stroke:none;" d="M2 61L2 62L7 62L2 61z"/>
<path style="fill:#276062; stroke:none;" d="M7 61L7 62L15 63L7 61z"/>
<path style="fill:#41a0a3; stroke:none;" d="M18.3333 61.6667L18.6667 62.3333L18.3333 61.6667M41 61L42 62L41 61z"/>
<path style="fill:#276062; stroke:none;" d="M46 61L47 62L46 61z"/>
<path style="fill:#020404; stroke:none;" d="M47 61L45 66L40 62L37 73L41 65L44 68L49 64L51 75L52 75L49 61L47 61z"/>
<path style="fill:#276062; stroke:none;" d="M2 62L3 63L2 62z"/>
<path style="fill:#020404; stroke:none;" d="M3 62L3 63L9 75L8 63L14 63L3 62z"/>
<path style="fill:#276062; stroke:none;" d="M42 62L43 63L42 62z"/>
<path style="fill:#41a0a3; stroke:none;" d="M49 62L50 63L49 62M2.66667 63.3333L3.33333 63.6667L2.66667 63.3333z"/>
<path style="fill:#276062; stroke:none;" d="M4.66667 63.3333L5.33333 63.6667L4.66667 63.3333M8 63L9 64L8 63z"/>
<path style="fill:#41a0a3; stroke:none;" d="M9 63L9 64L14 64L9 63M20 63L21 64L20 63M32 63L33 64L32 63z"/>
<path style="fill:#276062; stroke:none;" d="M33 63L34 64L33 63z"/>
<path style="fill:#41a0a3; stroke:none;" d="M43 63L44 64L43 63z"/>
<path style="fill:#276062; stroke:none;" d="M68 63L69 64L68 63M70 63L71 64L70 63z"/>
<path style="fill:#020404; stroke:none;" d="M68 64L68 74L69 74C69.3813 69.8005 70.1843 67.0539 74 65L75 71C76.8492 65.5973 72.6809 63.7441 68 64z"/>
<path style="fill:#276062; stroke:none;" d="M73 63L74 64L73 63z"/>
<path style="fill:#41a0a3; stroke:none;" d="M83 63L84 64L83 63z"/>
<path style="fill:#020404; stroke:none;" d="M124 69L124 73L117 72L117 73C125.365 76.2607 127.078 69.2766 118 67L118 66L123 66C119.507 60.6683 113.319 68.8727 124 69z"/>
<path style="fill:#276062; stroke:none;" d="M122 63L123 64L122 63z"/>
<path style="fill:#143031; stroke:none;" d="M6.33333 64.6667L6.66667 65.3333L6.33333 64.6667z"/>
<path style="fill:#41a0a3; stroke:none;" d="M8.33333 64.6667L8.66667 65.3333L8.33333 64.6667z"/>
<path style="fill:#276062; stroke:none;" d="M18 64L19 65L18 64z"/>
<path style="fill:#41a0a3; stroke:none;" d="M22 64L23 65L22 64z"/>
<path style="fill:#276062; stroke:none;" d="M30 64L31 65L30 64z"/>
<path style="fill:#020404; stroke:none;" d="M33 75L33 74L29 68C33.0071 69.572 34.3462 68.0911 35 64C27.6941 64.8228 24.4719 73.1553 33 75z"/>
<path style="fill:#41a0a3; stroke:none;" d="M35 64L36 65L35 64M39 64L40 65L39 64z"/>
<path style="fill:#276062; stroke:none;" d="M45 64L46 65L45 64z"/>
<path style="fill:#41a0a3; stroke:none;" d="M47 64L49 66L47 64z"/>
<path style="fill:#276062; stroke:none;" d="M48 64L49 65L48 64z"/>
<path style="fill:#41a0a3; stroke:none;" d="M50 64L51 65L50 64M55 64L56 65L55 64z"/>
<path style="fill:#143031; stroke:none;" d="M56 66L59 65L56 66z"/>
<path style="fill:#276062; stroke:none;" d="M59 64L60 65L59 64z"/>
<path style="fill:#41a0a3; stroke:none;" d="M60 64L61 65L60 64z"/>
<path style="fill:#143031; stroke:none;" d="M67 64L68 65L67 64M69 64L70 65L69 64M74 64L75 65L74 64z"/>
<path style="fill:#276062; stroke:none;" d="M81 64L82 65L81 64z"/>
<path style="fill:#41a0a3; stroke:none;" d="M85 64L86 65L85 64z"/>
<path style="fill:#020404; stroke:none;" d="M101 64L97 73L96 73L96 69L92 72L91 66L90 66L95 76C98.6401 73.1415 102.001 68.8397 101 64z"/>
<path style="fill:#276062; stroke:none;" d="M105 64L105 67L106 67L105 64z"/>
<path style="fill:#143031; stroke:none;" d="M106 64L106 65L109 65L106 64z"/>
<path style="fill:#41a0a3; stroke:none;" d="M109 64L110 65L109 64z"/>
<path style="fill:#143031; stroke:none;" d="M123.333 64.6667L123.667 65.3333L123.333 64.6667M20 65L21 66L20 65z"/>
<path style="fill:#41a0a3; stroke:none;" d="M28 65L29 66L28 65z"/>
<path style="fill:#276062; stroke:none;" d="M35.3333 65.6667L35.6667 66.3333L35.3333 65.6667M39 65L40 66L39 65z"/>
<path style="fill:#143031; stroke:none;" d="M41.6667 65.3333L42.3333 65.6667L41.6667 65.3333z"/>
<path style="fill:#276062; stroke:none;" d="M44 65L45 66L44 65z"/>
<path style="fill:#143031; stroke:none;" d="M50 65L51 66L50 65z"/>
<path style="fill:#276062; stroke:none;" d="M55 65L56 66L55 65z"/>
<path style="fill:#020404; stroke:none;" d="M57 65L57 66L63 73L57 73L60 69C55.0366 68.2579 56.4092 74.595 60.8711 74.338C67.7203 73.9433 60.9309 65.6216 57 65z"/>
<path style="fill:#276062; stroke:none;" d="M61 65L62 66L61 65z"/>
<path style="fill:#143031; stroke:none;" d="M73 65L74 66L73 65z"/>
<path style="fill:#41a0a3; stroke:none;" d="M75 65L76 66L75 65z"/>
<path style="fill:#143031; stroke:none;" d="M82.6667 65.3333L83.3333 65.6667L82.6667 65.3333M90 65L91 66L90 65M100 65L101 66L100 65z"/>
<path style="fill:#41a0a3; stroke:none;" d="M104 65L105 66L104 65z"/>
<path style="fill:#020404; stroke:none;" d="M106 65L106 66L112 73L107 73L109 68C105.08 70.1758 105.483 75.5107 110.817 74.0918C117.501 72.3139 109.736 65.2886 106 65z"/>
<path style="fill:#143031; stroke:none;" d="M116 65L117 66L116 65z"/>
<path style="fill:#5de1e7; stroke:none;" d="M119 65L123 67L123 66L119 65z"/>
<path style="fill:#41a0a3; stroke:none;" d="M121 65L122 66L121 65z"/>
<path style="fill:#276062; stroke:none;" d="M6.33333 66.6667L6.66667 67.3333L6.33333 66.6667M8 66L9 67L8 66z"/>
<path style="fill:#41a0a3; stroke:none;" d="M19 66L20 67L19 66M21 66L22 67L21 66z"/>
<path style="fill:#143031; stroke:none;" d="M23 66L24 67L23 66M30 66L31 67L30 66z"/>
<path style="fill:#5de1e7; stroke:none;" d="M31.6667 66.3333L32.3333 66.6667L31.6667 66.3333z"/>
<path style="fill:#143031; stroke:none;" d="M39 66L40 67L39 66z"/>
<path style="fill:#276062; stroke:none;" d="M41 66L42 67L41 66z"/>
<path style="fill:#41a0a3; stroke:none;" d="M46 66L47 67L46 66z"/>
<path style="fill:#276062; stroke:none;" d="M56 66L57 67L56 66z"/>
<path style="fill:#41a0a3; stroke:none;" d="M57.6667 66.3333L58.3333 66.6667L57.6667 66.3333z"/>
<path style="fill:#276062; stroke:none;" d="M62 66L63 67L62 66M70 66L71 67L70 66z"/>
<path style="fill:#41a0a3; stroke:none;" d="M73 66L74 67L73 66z"/>
<path style="fill:#276062; stroke:none;" d="M75 66L76 67L75 66z"/>
<path style="fill:#41a0a3; stroke:none;" d="M82 66L83 67L82 66z"/>
<path style="fill:#276062; stroke:none;" d="M84 66L85 67L84 66z"/>
<path style="fill:#143031; stroke:none;" d="M86 66L87 67L86 66z"/>
<path style="fill:#276062; stroke:none;" d="M89.3333 66.6667L89.6667 67.3333L89.3333 66.6667z"/>
<path style="fill:#41a0a3; stroke:none;" d="M99 66L100 67L99 66z"/>
<path style="fill:#276062; stroke:none;" d="M101 66L102 67L101 66z"/>
<path style="fill:#41a0a3; stroke:none;" d="M106.667 66.3333L107.333 66.6667L106.667 66.3333z"/>
<path style="fill:#276062; stroke:none;" d="M108 66L109 67L108 66z"/>
<path style="fill:#41a0a3; stroke:none;" d="M118 66L119 67L118 66M123 66L124 67L123 66z"/>
<path style="fill:#143031; stroke:none;" d="M8.33333 67.6667L8.66667 68.3333L8.33333 67.6667z"/>
<path style="fill:#276062; stroke:none;" d="M27 67L28 68L27 67M30 67L31 68L30 67z"/>
<path style="fill:#41a0a3; stroke:none;" d="M31 67L32 68L31 67z"/>
<path style="fill:#143031; stroke:none;" d="M32 67L33 68L32 67z"/>
<path style="fill:#41a0a3; stroke:none;" d="M41 67L42 68L41 67z"/>
<path style="fill:#143031; stroke:none;" d="M43 67L44 68L43 67M45 67L46 68L45 67z"/>
<path style="fill:#41a0a3; stroke:none;" d="M51 67L52 68L51 67z"/>
<path style="fill:#276062; stroke:none;" d="M60 67L61 68L60 67z"/>
<path style="fill:#41a0a3; stroke:none;" d="M70 67L71 68L70 67z"/>
<path style="fill:#276062; stroke:none;" d="M91 67L92 68L91 67z"/>
<path style="fill:#41a0a3; stroke:none;" d="M101 67L102 68L101 67z"/>
<path style="fill:#276062; stroke:none;" d="M112 67L113 68L112 67z"/>
<path style="fill:#143031; stroke:none;" d="M116 67L117 68L116 67M119 67L120 68L119 67z"/>
<path style="fill:#276062; stroke:none;" d="M120 67L121 68L120 67z"/>
<path style="fill:#143031; stroke:none;" d="M121.667 67.3333L122.333 67.6667L121.667 67.3333z"/>
<path style="fill:#276062; stroke:none;" d="M123 67L124 68L123 67z"/>
<path style="fill:#41a0a3; stroke:none;" d="M6.33333 68.6667L6.66667 69.3333L6.33333 68.6667z"/>
<path style="fill:#143031; stroke:none;" d="M22 68L23 69L22 68z"/>
<path style="fill:#41a0a3; stroke:none;" d="M24.3333 68.6667L24.6667 69.3333L24.3333 68.6667z"/>
<path style="fill:#143031; stroke:none;" d="M27 68L28 69L27 68M29 68L31 70L29 68z"/>
<path style="fill:#41a0a3; stroke:none;" d="M34 68L35 69L34 68M38 68L39 69L38 68M44 68L45 69L44 68z"/>
<path style="fill:#276062; stroke:none;" d="M49 68L50 69L49 68M51 68L52 69L51 68z"/>
<path style="fill:#143031; stroke:none;" d="M57 68L58 69L57 68z"/>
<path style="fill:#41a0a3; stroke:none;" d="M60 68L62 70L60 68z"/>
<path style="fill:#276062; stroke:none;" d="M63 68L64 69L63 68z"/>
<path style="fill:#143031; stroke:none;" d="M81 68L82 69L81 68M85 68L86 69L85 68z"/>
<path style="fill:#41a0a3; stroke:none;" d="M89 68L90 69L89 68z"/>
<path style="fill:#276062; stroke:none;" d="M94 68L95 69L94 68z"/>
<path style="fill:#41a0a3; stroke:none;" d="M95 68L96 69L95 68M98 68L99 69L98 68z"/>
<path style="fill:#276062; stroke:none;" d="M106 68L107 69L106 68M109.667 68.3333L110.333 68.6667L109.667 68.3333z"/>
<path style="fill:#41a0a3; stroke:none;" d="M125 68L126 69L125 68z"/>
<path style="fill:#276062; stroke:none;" d="M18.3333 69.6667L18.6667 70.3333L18.3333 69.6667M22.3333 69.6667L22.6667 70.3333L22.3333 69.6667z"/>
<path style="fill:#41a0a3; stroke:none;" d="M29 69L30 70L29 69M33 69L34 70L33 69z"/>
<path style="fill:#143031; stroke:none;" d="M40 69L41 70L40 69z"/>
<path style="fill:#41a0a3; stroke:none;" d="M49.3333 69.6667L49.6667 70.3333L49.3333 69.6667z"/>
<path style="fill:#143031; stroke:none;" d="M51 69L52 70L51 69M59 69L60 70L59 69z"/>
<path style="fill:#276062; stroke:none;" d="M60 69L61 70L60 69z"/>
<path style="fill:#143031; stroke:none;" d="M69.3333 69.6667L69.6667 70.3333L69.3333 69.6667M74 69L76 72L74 69z"/>
<path style="fill:#276062; stroke:none;" d="M81 69L82 70L81 69M85.3333 69.6667L85.6667 70.3333L85.3333 69.6667z"/>
<path style="fill:#41a0a3; stroke:none;" d="M87.3333 69.6667L87.6667 70.3333L87.3333 69.6667M93 69L92 71L94 71L93 69M100 69L101 70L100 69z"/>
<path style="fill:#276062; stroke:none;" d="M105 69L106 70L105 69z"/>
<path style="fill:#143031; stroke:none;" d="M109 69L110 70L109 69z"/>
<path style="fill:#41a0a3; stroke:none;" d="M110 69L111 70L110 69M113 69L114 70L113 69M118 69L119 70L118 69z"/>
<path style="fill:#276062; stroke:none;" d="M119.667 69.3333L120.333 69.6667L119.667 69.3333z"/>
<path style="fill:#41a0a3; stroke:none;" d="M121.667 69.3333L122.333 69.6667L121.667 69.3333z"/>
<path style="fill:#276062; stroke:none;" d="M123 69L124 70L123 69z"/>
<path style="fill:#41a0a3; stroke:none;" d="M9 70L10 71L9 70z"/>
<path style="fill:#276062; stroke:none;" d="M24 70L24 73L25 73L24 70z"/>
<path style="fill:#41a0a3; stroke:none;" d="M40 70L41 71L40 70z"/>
<path style="fill:#276062; stroke:none;" d="M55.3333 70.6667L55.6667 71.3333L55.3333 70.6667M57 70L58 71L57 70z"/>
<path style="fill:#5de1e7; stroke:none;" d="M58 70L62 73L58 70z"/>
<path style="fill:#143031; stroke:none;" d="M67.3333 70.6667L67.6667 71.3333L67.3333 70.6667z"/>
<path style="fill:#41a0a3; stroke:none;" d="M76 70L77 71L76 70M81.3333 70.6667L81.6667 71.3333L81.3333 70.6667z"/>
<path style="fill:#143031; stroke:none;" d="M90 70L91 71L90 70z"/>
<path style="fill:#41a0a3; stroke:none;" d="M97 70L98 71L97 70M107 70L108 71L107 70z"/>
<path style="fill:#5de1e7; stroke:none;" d="M107 71L111 73C110.386 70.1492 109.697 70.1456 107 71z"/>
<path style="fill:#143031; stroke:none;" d="M111 70L112 71L111 70z"/>
<path style="fill:#276062; stroke:none;" d="M113 70L114 71L113 70M9 71L10 72L9 71z"/>
<path style="fill:#41a0a3; stroke:none;" d="M18.3333 71.6667L18.6667 72.3333L18.3333 71.6667M22.3333 71.6667L22.6667 72.3333L22.3333 71.6667z"/>
<path style="fill:#143031; stroke:none;" d="M27 71L28 72L27 71z"/>
<path style="fill:#276062; stroke:none;" d="M37 71L38 72L37 71z"/>
<path style="fill:#143031; stroke:none;" d="M39 71L40 72L39 71z"/>
<path style="fill:#41a0a3; stroke:none;" d="M52.3333 71.6667L52.6667 72.3333L52.3333 71.6667M57 71L60 73L60 72L57 71z"/>
<path style="fill:#143031; stroke:none;" d="M62.3333 71.6667L62.6667 72.3333L62.3333 71.6667z"/>
<path style="fill:#41a0a3; stroke:none;" d="M64 71L64 74L65 74L64 71z"/>
<path style="fill:#276062; stroke:none;" d="M69.3333 71.6667L69.6667 72.3333L69.3333 71.6667M74 71L76 73L74 71z"/>
<path style="fill:#41a0a3; stroke:none;" d="M85 71L85 75L86 75L85 71z"/>
<path style="fill:#276062; stroke:none;" d="M87 71L88 72L87 71z"/>
<path style="fill:#41a0a3; stroke:none;" d="M90 71L91 72L90 71z"/>
<path style="fill:#143031; stroke:none;" d="M92 71L93 72L92 71z"/>
<path style="fill:#276062; stroke:none;" d="M93 71L94 72L93 71z"/>
<path style="fill:#143031; stroke:none;" d="M97 71L98 72L97 71z"/>
<path style="fill:#41a0a3; stroke:none;" d="M99 71L100 72L99 71M111.333 71.6667L111.667 72.3333L111.333 71.6667z"/>
<path style="fill:#143031; stroke:none;" d="M113 71L114 72L113 71z"/>
<path style="fill:#276062; stroke:none;" d="M116 71L117 72L116 71z"/>
<path style="fill:#143031; stroke:none;" d="M117 71L118 72L117 71M7 72L8 73L7 72M9 72L10 73L9 72z"/>
<path style="fill:#276062; stroke:none;" d="M27 72L28 73L27 72z"/>
<path style="fill:#143031; stroke:none;" d="M29 72L30 73L29 72z"/>
<path style="fill:#276062; stroke:none;" d="M38 72L39 73L38 72z"/>
<path style="fill:#41a0a3; stroke:none;" d="M39 72L40 73L39 72z"/>
<path style="fill:#276062; stroke:none;" d="M50 72L51 73L50 72z"/>
<path style="fill:#41a0a3; stroke:none;" d="M55 72L56 73L55 72z"/>
<path style="fill:#143031; stroke:none;" d="M57 72L58 73L57 72z"/>
<path style="fill:#41a0a3; stroke:none;" d="M74 72L75 73L74 72M87 72L88 73L87 72z"/>
<path style="fill:#276062; stroke:none;" d="M96 72L97 73L96 72z"/>
<path style="fill:#41a0a3; stroke:none;" d="M107 72L107 73L110 73L107 72z"/>
<path style="fill:#143031; stroke:none;" d="M119 72L120 73L119 72z"/>
<path style="fill:#41a0a3; stroke:none;" d="M120 72L121 73L120 72z"/>
<path style="fill:#276062; stroke:none;" d="M123 72L124 73L123 72M125 72L126 73L125 72M7 73L8 74L7 73z"/>
<path style="fill:#41a0a3; stroke:none;" d="M15 73L16 74L15 73z"/>
<path style="fill:#143031; stroke:none;" d="M30 73L31 74L30 73z"/>
<path style="fill:#276062; stroke:none;" d="M31 73L32 74L31 73z"/>
<path style="fill:#41a0a3; stroke:none;" d="M32.6667 73.3333L33.3333 73.6667L32.6667 73.3333M37 73L38 74L37 73M50 73L51 74L50 73z"/>
<path style="fill:#143031; stroke:none;" d="M56 73L57 74L56 73z"/>
<path style="fill:#41a0a3; stroke:none;" d="M67 73L68 74L67 73M69 73L70 74L69 73M78 73L79 74L78 73z"/>
<path style="fill:#276062; stroke:none;" d="M91 73L92 74L91 73z"/>
<path style="fill:#143031; stroke:none;" d="M94 73L95 74L94 73z"/>
<path style="fill:#41a0a3; stroke:none;" d="M98 73L99 74L98 73M105 73L106 74L105 73z"/>
<path style="fill:#143031; stroke:none;" d="M113 73L114 74L113 73z"/>
<path style="fill:#41a0a3; stroke:none;" d="M117 73L118 74L117 73z"/>
<path style="fill:#143031; stroke:none;" d="M124 73L125 74L124 73z"/>
<path style="fill:#41a0a3; stroke:none;" d="M7 74L8 75L7 74z"/>
<path style="fill:#143031; stroke:none;" d="M9 74L10 75L9 74z"/>
<path style="fill:#41a0a3; stroke:none;" d="M17 74L18 75L17 74z"/>
<path style="fill:#276062; stroke:none;" d="M23 74L24 75L23 74z"/>
<path style="fill:#143031; stroke:none;" d="M29 74L30 75L29 74z"/>
<path style="fill:#276062; stroke:none;" d="M33 74L34 75L33 74z"/>
<path style="fill:#41a0a3; stroke:none;" d="M57.6667 74.3333L58.3333 74.6667L57.6667 74.3333z"/>
<path style="fill:#276062; stroke:none;" d="M59 74L60 75L59 74M63 74L64 75L63 74z"/>
<path style="fill:#41a0a3; stroke:none;" d="M80 74L81 75L80 74z"/>
<path style="fill:#276062; stroke:none;" d="M86 74L87 75L86 74z"/>
<path style="fill:#143031; stroke:none;" d="M92 74L93 75L92 74z"/>
<path style="fill:#41a0a3; stroke:none;" d="M93 74L95 76L93 74z"/>
<path style="fill:#276062; stroke:none;" d="M94 74L95 75L94 74z"/>
<path style="fill:#143031; stroke:none;" d="M97 74L98 75L97 74z"/>
<path style="fill:#41a0a3; stroke:none;" d="M107 74L108 75L107 74z"/>
<path style="fill:#276062; stroke:none;" d="M108 74L109 75L108 74z"/>
<path style="fill:#143031; stroke:none;" d="M109 74L110 75L109 74M112 74L113 75L112 74z"/>
<path style="fill:#41a0a3; stroke:none;" d="M119 74L120 75L119 74z"/>
<path style="fill:#143031; stroke:none;" d="M120 74L121 75L120 74z"/>
<path style="fill:#276062; stroke:none;" d="M123 74L124 75L123 74z"/>
<path style="fill:#41a0a3; stroke:none;" d="M8 75L9 76L8 75M30.6667 75.3333L31.3333 75.6667L30.6667 75.3333M51 75L52 76L51 75z"/>
<path style="fill:#276062; stroke:none;" d="M96 75L97 76L96 75z"/>
</svg>
