<?xml version="1.0" standalone="yes"?>
<svg xmlns="http://www.w3.org/2000/svg" width="58" height="58">
<path style="fill:#d9d9d9; stroke:none;" d="M0 0L0 58L58 58L58 0L0 0z"/>
<path style="fill:#e69a9a; stroke:none;" d="M36.6667 5.33333L37.3333 5.66667L36.6667 5.33333z"/>
<path style="fill:#f25757; stroke:none;" d="M38 5L39 6L38 5z"/>
<path style="fill:#fa2e2e; stroke:none;" d="M39 5L40 6L39 5z"/>
<path style="fill:#ff1414; stroke:none;" d="M40 5C36.4736 6.38719 34.842 6.99954 35 11L29 22L27 22C24.9191 14.9284 21.0041 8.77362 13 10L3 48L4 48L8 40L9 40L8 46L9 46L18 18L19 18C19.8483 19.7342 20.7427 21.3593 21.733 23.0201C30.0924 37.0386 34.2865 18.434 40 13L43 29L44 29L44 26L45 26L45 38L46 38L46 34L47 34C47.2288 39.2477 47.5688 49.8693 52 53L48.946 25L43 9L40 8L40 5z"/>
<path style="fill:#e69a9a; stroke:none;" d="M41 5L42 6L41 5M34 6L35 7L34 6z"/>
<path style="fill:#fa2e2e; stroke:none;" d="M41 6L40 8L42 8L41 6M34 7L35 8L34 7z"/>
<path style="fill:#e69a9a; stroke:none;" d="M42 7L43 8L42 7z"/>
<path style="fill:#f25757; stroke:none;" d="M17 8L18 9L17 8z"/>
<path style="fill:#e69a9a; stroke:none;" d="M18 8L19 9L18 8M33 8L34 9L33 8z"/>
<path style="fill:#f25757; stroke:none;" d="M36 8L37 9L36 8M42 8L43 9L42 8z"/>
<path style="fill:#e69a9a; stroke:none;" d="M14 9L15 10L14 9z"/>
<path style="fill:#fa2e2e; stroke:none;" d="M15 9L16 10L15 9z"/>
<path style="fill:#f25757; stroke:none;" d="M19 9L20 10L19 9M33 9L34 10L33 9z"/>
<path style="fill:#fa2e2e; stroke:none;" d="M34 9L33 11L35 11L34 9M36 9L38 11L38 9L36 9z"/>
<path style="fill:#e69a9a; stroke:none;" d="M43 9L44 10L43 9M12 10L13 11L12 10z"/>
<path style="fill:#f25757; stroke:none;" d="M20 10L21 11L20 10z"/>
<path style="fill:#fa2e2e; stroke:none;" d="M42 10L42 12L44 12L42 10z"/>
<path style="fill:#f25757; stroke:none;" d="M43 10L44 11L43 10z"/>
<path style="fill:#fa2e2e; stroke:none;" d="M12 11L12 14L13 14L14 11L12 11z"/>
<path style="fill:#f25757; stroke:none;" d="M21 11L22 12L21 11z"/>
<path style="fill:#e69a9a; stroke:none;" d="M32 11L33 12L32 11M44 11L45 12L44 11z"/>
<path style="fill:#f25757; stroke:none;" d="M12 12L13 13L12 12M22 12L23 13L22 12M32 12L33 13L32 12M43.6667 12.3333L44.3333 12.6667L43.6667 12.3333z"/>
<path style="fill:#e69a9a; stroke:none;" d="M23 13L24 14L23 13z"/>
<path style="fill:#fa2e2e; stroke:none;" d="M39 13L36 19L37 19L38 15L39 15L41 19L42 19L39 13M43.6667 13.3333L44.3333 13.6667L43.6667 13.3333z"/>
<path style="fill:#e69a9a; stroke:none;" d="M11.3333 14.6667L11.6667 15.3333L11.3333 14.6667z"/>
<path style="fill:#fa2e2e; stroke:none;" d="M23 14L24 15L23 14z"/>
<path style="fill:#e69a9a; stroke:none;" d="M31 14L32 15L31 14z"/>
<path style="fill:#f25757; stroke:none;" d="M45 14L46 15L45 14M24 15L25 16L24 15z"/>
<path style="fill:#fa2e2e; stroke:none;" d="M31 15L32 16L31 15z"/>
<path style="fill:#e69a9a; stroke:none;" d="M38 15L39 16L38 15z"/>
<path style="fill:#f25757; stroke:none;" d="M11.3333 16.6667L11.6667 17.3333L11.3333 16.6667z"/>
<path style="fill:#e69a9a; stroke:none;" d="M25 16L26 17L25 16M30 16L31 17L30 16z"/>
<path style="fill:#f25757; stroke:none;" d="M37 16L38 17L37 16z"/>
<path style="fill:#e69a9a; stroke:none;" d="M39 16L40 17L39 16M46 16L47 17L46 16z"/>
<path style="fill:#fa2e2e; stroke:none;" d="M25 17L26 18L25 17z"/>
<path style="fill:#f25757; stroke:none;" d="M30 17L31 18L30 17z"/>
<path style="fill:#e69a9a; stroke:none;" d="M37.3333 17.6667L37.6667 18.3333L37.3333 17.6667z"/>
<path style="fill:#fa2e2e; stroke:none;" d="M46 17L47 18L46 17M11 18L12 19L11 18M18 18L20 20L18 18z"/>
<path style="fill:#e69a9a; stroke:none;" d="M26 18L27 19L26 18z"/>
<path style="fill:#f25757; stroke:none;" d="M40 18L41 19L40 18z"/>
<path style="fill:#e69a9a; stroke:none;" d="M18 19L19 20L18 19z"/>
<path style="fill:#f25757; stroke:none;" d="M26 19L27 20L26 19M29 19L30 20L29 19z"/>
<path style="fill:#e69a9a; stroke:none;" d="M36 19L37 20L36 19M40 19L41 20L40 19M47 19L48 20L47 19M10.3333 20.6667L10.6667 21.3333L10.3333 20.6667M19 20L20 21L19 20M27 20L28 21L27 20z"/>
<path style="fill:#fa2e2e; stroke:none;" d="M35 20L36 21L35 20M41 20L42 21L41 20M47 20L48 21L47 20M20 21L21 22L20 21z"/>
<path style="fill:#f25757; stroke:none;" d="M27.6667 21.3333L28.3333 21.6667L27.6667 21.3333z"/>
<path style="fill:#e69a9a; stroke:none;" d="M35 21L36 22L35 21M41 21L42 22L41 21M48 21L49 22L48 21z"/>
<path style="fill:#f25757; stroke:none;" d="M10 22L11 23L10 22z"/>
<path style="fill:#fa2e2e; stroke:none;" d="M17 22L18 23L17 22z"/>
<path style="fill:#f25757; stroke:none;" d="M20 22L25 29L20 22z"/>
<path style="fill:#fa2e2e; stroke:none;" d="M34 22L35 23L34 22M42 22L43 23L42 22z"/>
<path style="fill:#f25757; stroke:none;" d="M48 22L49 23L48 22z"/>
<path style="fill:#fa2e2e; stroke:none;" d="M10 23L11 24L10 23z"/>
<path style="fill:#f25757; stroke:none;" d="M17 23L18 24L17 23z"/>
<path style="fill:#e69a9a; stroke:none;" d="M20 23L21 24L20 23z"/>
<path style="fill:#fa2e2e; stroke:none;" d="M22 23L23 24L22 23z"/>
<path style="fill:#e69a9a; stroke:none;" d="M34 23L35 24L34 23z"/>
<path style="fill:#f25757; stroke:none;" d="M42 23L43 24L42 23z"/>
<path style="fill:#fa2e2e; stroke:none;" d="M48 23L49 24L48 23z"/>
<path style="fill:#e69a9a; stroke:none;" d="M9.33333 24.6667L9.66667 25.3333L9.33333 24.6667M17.3333 24.6667L17.6667 25.3333L17.3333 24.6667z"/>
<path style="fill:#f25757; stroke:none;" d="M33 24L34 25L33 24z"/>
<path style="fill:#e69a9a; stroke:none;" d="M42 24L43 25L42 24M49.3333 24.6667L49.6667 25.3333L49.3333 24.6667M21 25L22 26L21 25z"/>
<path style="fill:#fa2e2e; stroke:none;" d="M32 25L33 26L32 25z"/>
<path style="fill:#f25757; stroke:none;" d="M42.3333 25.6667L42.6667 26.3333L42.3333 25.6667z"/>
<path style="fill:#fa2e2e; stroke:none;" d="M9 26L10 27L9 26M23 26L24 27L23 26z"/>
<path style="fill:#e69a9a; stroke:none;" d="M32 26L32 28L34 26L32 26z"/>
<path style="fill:#fa2e2e; stroke:none;" d="M44 26L43 30L44 26z"/>
<path style="fill:#f25757; stroke:none;" d="M49 26L50 27L49 26z"/>
<path style="fill:#fa2e2e; stroke:none;" d="M16 27L17 28L16 27z"/>
<path style="fill:#e69a9a; stroke:none;" d="M22 27L23 28L22 27z"/>
<path style="fill:#f25757; stroke:none;" d="M31 27L30 30L31 27z"/>
<path style="fill:#e69a9a; stroke:none;" d="M42 27L43 28L42 27M8 28L9 29L8 28z"/>
<path style="fill:#f25757; stroke:none;" d="M16 28L17 29L16 28z"/>
<path style="fill:#e69a9a; stroke:none;" d="M50.3333 28.6667L50.6667 29.3333L50.3333 28.6667z"/>
<path style="fill:#fa2e2e; stroke:none;" d="M8 29L9 30L8 29z"/>
<path style="fill:#e69a9a; stroke:none;" d="M16 29L17 30L16 29M24 29L24 30L28 31L28 30L24 29z"/>
<path style="fill:#f25757; stroke:none;" d="M26 29L27 30L26 29z"/>
<path style="fill:#fa2e2e; stroke:none;" d="M27 29L27 30L30 30L27 29z"/>
<path style="fill:#e69a9a; stroke:none;" d="M7 30L8 31L7 30z"/>
<path style="fill:#fa2e2e; stroke:none;" d="M15 30L16 31L15 30z"/>
<path style="fill:#f25757; stroke:none;" d="M28 30L29 31L28 30z"/>
<path style="fill:#e69a9a; stroke:none;" d="M29 30L30 31L29 30z"/>
<path style="fill:#f25757; stroke:none;" d="M43 30L44 31L43 30z"/>
<path style="fill:#fa2e2e; stroke:none;" d="M45 30L45 34L46 34L45 30M49 30L53 40L49 30z"/>
<path style="fill:#f25757; stroke:none;" d="M50 30L51 31L50 30M7 31L8 32L7 31M15 31L16 32L15 31z"/>
<path style="fill:#e69a9a; stroke:none;" d="M43 31L44 32L43 31z"/>
<path style="fill:#fa2e2e; stroke:none;" d="M7 32L8 33L7 32z"/>
<path style="fill:#e69a9a; stroke:none;" d="M15 32L16 33L15 32M51.3333 32.6667L51.6667 33.3333L51.3333 32.6667M6 33L7 34L6 33z"/>
<path style="fill:#f25757; stroke:none;" d="M6 34L7 35L6 34M14 34L15 35L14 34z"/>
<path style="fill:#fa2e2e; stroke:none;" d="M44 34L45 35L44 34M46.3333 34.6667L46.6667 35.3333L46.3333 34.6667z"/>
<path style="fill:#f25757; stroke:none;" d="M51 34L52 35L51 34z"/>
<path style="fill:#e69a9a; stroke:none;" d="M14 35L15 36L14 35z"/>
<path style="fill:#f25757; stroke:none;" d="M44 35L45 36L44 35z"/>
<path style="fill:#e69a9a; stroke:none;" d="M5 36L6 37L5 36z"/>
<path style="fill:#fa2e2e; stroke:none;" d="M13 36L14 37L13 36z"/>
<path style="fill:#e69a9a; stroke:none;" d="M44.3333 36.6667L44.6667 37.3333L44.3333 36.6667z"/>
<path style="fill:#f25757; stroke:none;" d="M46.3333 36.6667L46.6667 37.3333L46.3333 36.6667z"/>
<path style="fill:#ff1414; stroke:none;" d="M51 36L52 37L51 36z"/>
<path style="fill:#fa2e2e; stroke:none;" d="M5 37L6 38L5 37z"/>
<path style="fill:#e69a9a; stroke:none;" d="M13 37L14 38L13 37M52 37L53 38L52 37M4.33333 38.6667L4.66667 39.3333L4.33333 38.6667z"/>
<path style="fill:#fa2e2e; stroke:none;" d="M12 38L13 39L12 38M45 38L48 40L45 38z"/>
<path style="fill:#f25757; stroke:none;" d="M52 38L53 39L52 38z"/>
<path style="fill:#e69a9a; stroke:none;" d="M12 39L13 40L12 39z"/>
<path style="fill:#f25757; stroke:none;" d="M45.3333 39.6667L45.6667 40.3333L45.3333 39.6667z"/>
<path style="fill:#fa2e2e; stroke:none;" d="M4 40L5 41L4 40z"/>
<path style="fill:#f25757; stroke:none;" d="M8 40L9 41L8 40z"/>
<path style="fill:#fa2e2e; stroke:none;" d="M11 40L12 41L11 40z"/>
<path style="fill:#ff1414; stroke:none;" d="M46 40L46 43L47 43L46 40z"/>
<path style="fill:#f25757; stroke:none;" d="M47 40L48 48L49 48L47 40M51 40L52 41L51 40z"/>
<path style="fill:#ff1414; stroke:none;" d="M52.3333 40.6667L52.6667 41.3333L52.3333 40.6667z"/>
<path style="fill:#e69a9a; stroke:none;" d="M3.33333 41.6667L3.66667 42.3333L3.33333 41.6667z"/>
<path style="fill:#fa2e2e; stroke:none;" d="M7 41L8 42L7 41z"/>
<path style="fill:#e69a9a; stroke:none;" d="M8 41L7 43L8 41M11 41L12 42L11 41M45 41L46 42L45 41z"/>
<path style="fill:#fa2e2e; stroke:none;" d="M51 41L53 44L51 41z"/>
<path style="fill:#e69a9a; stroke:none;" d="M53.3333 41.6667L53.6667 42.3333L53.3333 41.6667z"/>
<path style="fill:#f25757; stroke:none;" d="M8 42L9 43L8 42z"/>
<path style="fill:#fa2e2e; stroke:none;" d="M10 42L11 43L10 42z"/>
<path style="fill:#f25757; stroke:none;" d="M3 43L4 44L3 43z"/>
<path style="fill:#fa2e2e; stroke:none;" d="M6 43L7 44L6 43z"/>
<path style="fill:#d9d9d9; stroke:none;" d="M7 43L8 44L7 43z"/>
<path style="fill:#e69a9a; stroke:none;" d="M10 43L11 44L10 43z"/>
<path style="fill:#fa2e2e; stroke:none;" d="M46 43L47 44L46 43M48 43L48 46L49 46L48 43z"/>
<path style="fill:#f25757; stroke:none;" d="M53 43L53 47L54 47L53 43z"/>
<path style="fill:#e69a9a; stroke:none;" d="M7 44L8 45L7 44z"/>
<path style="fill:#fa2e2e; stroke:none;" d="M9 44L10 45L9 44z"/>
<path style="fill:#f25757; stroke:none;" d="M5 45L6 46L5 45M7 45L9 47L7 45z"/>
<path style="fill:#e69a9a; stroke:none;" d="M9 45L10 46L9 45M46 45L47 46L46 45z"/>
<path style="fill:#fa2e2e; stroke:none;" d="M4 46L5 47L4 46z"/>
<path style="fill:#e69a9a; stroke:none;" d="M7 46L8 47L7 46z"/>
<path style="fill:#fa2e2e; stroke:none;" d="M52 46L53 47L52 46z"/>
<path style="fill:#e69a9a; stroke:none;" d="M4 47L5 48L4 47M47 47L48 48L47 47M52.6667 47.3333L53.3333 47.6667L52.6667 47.3333M48.3333 48.6667L48.6667 49.3333L48.3333 48.6667M52.3333 50.6667L52.6667 51.3333L52.3333 50.6667z"/>
<path style="fill:#fa2e2e; stroke:none;" d="M49 51L50 52L49 51z"/>
<path style="fill:#e69a9a; stroke:none;" d="M49 52L50 53L49 52z"/>
<path style="fill:#f25757; stroke:none;" d="M50 53L51 54L50 53z"/>
<path style="fill:#fa2e2e; stroke:none;" d="M51 53L52 54L51 53z"/>
</svg>
