<?xml version="1.0" standalone="yes"?>
<svg xmlns="http://www.w3.org/2000/svg" width="500" height="154">
<path style="fill:#5de1e7; stroke:none;" d="M0 0L0 154L500 154L500 0L0 0z"/>
<path style="fill:#3a8e91; stroke:none;" d="M66 42L66 43L69 43L66 42M308 42L308 43L311 43L308 42z"/>
<path style="fill:#030606; stroke:none;" d="M67 42L66 52L64 52L62 46C64.3326 58.7537 62.0008 73.9081 62 87C61.9997 90.9771 60.0946 98.1031 61.6427 101.682C63.4648 105.894 68.2825 102.954 69.3511 99.9414C71.4646 93.983 72.9296 82.1608 72 76L74 77L79 70L84 78L85 78L85 76L86 76L85 81L86 81L86 79L87 79L86 87L87 87L87 83L88 83L87 96L88 96L88 89L89 89L89 107C99.0309 93.5904 92.5529 54.747 70 68C70 60.1132 71.6385 48.7803 67 42M309 42L308 52L306 52L304 46C306.333 58.7537 304.001 73.908 304 87C304 90.9771 302.095 98.1031 303.643 101.682C305.465 105.894 310.283 102.954 311.351 99.9414C313.465 93.9829 314.93 82.1608 314 76L316 77L321 70L326 78L327 78L327 76L328 76L327 81L328 81L328 79L329 79L328 87L329 87L329 83L330 83L329 96L330 96L330 89L331 89L331 107C341.031 93.5904 334.553 54.747 312 68C312 60.1132 313.638 48.7803 309 42z"/>
<path style="fill:#296365; stroke:none;" d="M66 43L67 44L66 43z"/>
<path style="fill:#1d4748; stroke:none;" d="M68 43L69 44L68 43z"/>
<path style="fill:#296365; stroke:none;" d="M308 43L309 44L308 43z"/>
<path style="fill:#1d4748; stroke:none;" d="M310 43L311 44L310 43M66 44L67 45L66 44M308 44L309 45L308 44z"/>
<path style="fill:#3a8e91; stroke:none;" d="M62 45L63 46L62 45z"/>
<path style="fill:#296365; stroke:none;" d="M63 45L64 46L63 45z"/>
<path style="fill:#3a8e91; stroke:none;" d="M69.3333 45.6667L69.6667 46.3333L69.3333 45.6667M304 45L305 46L304 45z"/>
<path style="fill:#296365; stroke:none;" d="M305 45L306 46L305 45z"/>
<path style="fill:#3a8e91; stroke:none;" d="M311.333 45.6667L311.667 46.3333L311.333 45.6667M64 46L65 47L64 46M306 46L307 47L306 46z"/>
<path style="fill:#296365; stroke:none;" d="M64.3333 47.6667L64.6667 48.3333L64.3333 47.6667M69 47L70 48L69 47M306.333 47.6667L306.667 48.3333L306.333 47.6667M311 47L312 48L311 47z"/>
<path style="fill:#1d4748; stroke:none;" d="M62 48L62 55L63 55L62 48z"/>
<path style="fill:#3a8e91; stroke:none;" d="M65 48L65 52L66 52L65 48z"/>
<path style="fill:#1d4748; stroke:none;" d="M69 48L69 51L70 51L69 48M304 48L304 55L305 55L304 48z"/>
<path style="fill:#3a8e91; stroke:none;" d="M307 48L307 52L308 52L307 48z"/>
<path style="fill:#1d4748; stroke:none;" d="M311 48L311 51L312 51L311 48M64 49L64 52L65 52L64 49M306 49L306 52L307 52L306 49z"/>
<path style="fill:#3a8e91; stroke:none;" d="M184.667 52.3333L185.333 52.6667L184.667 52.3333z"/>
<path style="fill:#296365; stroke:none;" d="M186 52L188 54L186 52z"/>
<path style="fill:#3a8e91; stroke:none;" d="M180 53L181 54L180 53z"/>
<path style="fill:#1d4748; stroke:none;" d="M181 53L182 54L181 53z"/>
<path style="fill:#030606; stroke:none;" d="M179 55L180 59C175.967 59.548 174.009 68.2359 173 72L171 72C168.561 63.7129 163.396 55.0686 154 59L143 102L144 102L149 93L150 93L148 100C156.422 94.4835 159.805 77.4416 160 68C163.436 71.0629 165.263 77.7944 169.225 79.7623C176.541 83.3967 181.728 69.0351 182 64L186 68L188 67L188 68L192 93L193 93L193 88L194 88L198 109L201 94L200 94L200 98L199 98L200 89L199 89L199 92L198 92L199 85L198 85L198 87C196.778 77.6483 192.845 48.3817 179 55z"/>
<path style="fill:#3a8e91; stroke:none;" d="M9 54L10 55L9 54z"/>
<path style="fill:#296365; stroke:none;" d="M10 54L10 55L15 55L10 54z"/>
<path style="fill:#3a8e91; stroke:none;" d="M15 54L15 55L19 55L15 54M50 54L50 55L53 55L50 54z"/>
<path style="fill:#1d4748; stroke:none;" d="M179 54L180 55L179 54M186 54L187 55L186 54z"/>
<path style="fill:#030606; stroke:none;" d="M8 55L11 58L9 62L23.3966 64.6034L25.1698 78L31 108L33 108L34 105L37 107L33 75L32 75L32 77L31 77L30 63L31 63L31 67L32 67L32 62L55 61L50 57L50 56L52 56L40.0895 56.4545L8 55z"/>
<path style="fill:#1d4748; stroke:none;" d="M37 57L48 56C44.6123 54.5785 39.5542 54.077 37 57M52 55L50 56L50 57L52 55z"/>
<path style="fill:#3a8e91; stroke:none;" d="M188 55L189 56L188 55z"/>
<path style="fill:#296365; stroke:none;" d="M39 56L40 57L39 56z"/>
<path style="fill:#3a8e91; stroke:none;" d="M159 56L160 57L159 56z"/>
<path style="fill:#1d4748; stroke:none;" d="M160 56L161 57L160 56z"/>
<path style="fill:#296365; stroke:none;" d="M178 56L179 57L178 56z"/>
<path style="fill:#1d4748; stroke:none;" d="M181 56L182 59L183 59L181 56z"/>
<path style="fill:#3a8e91; stroke:none;" d="M8 57L9 58L8 57z"/>
<path style="fill:#1d4748; stroke:none;" d="M53.6667 57.3333L54.3333 57.6667L53.6667 57.3333z"/>
<path style="fill:#3a8e91; stroke:none;" d="M156 57L157 58L156 57z"/>
<path style="fill:#1d4748; stroke:none;" d="M157 57L158 58L157 57z"/>
<path style="fill:#3a8e91; stroke:none;" d="M162 57L163 58L162 57z"/>
<path style="fill:#1d4748; stroke:none;" d="M178 57L180 59L180 57L178 57z"/>
<path style="fill:#3a8e91; stroke:none;" d="M189 57L190 58L189 57M9 58L10 59L9 58z"/>
<path style="fill:#1d4748; stroke:none;" d="M10.3333 58.6667L10.6667 59.3333L10.3333 58.6667M55.3333 58.6667L55.6667 59.3333L55.3333 58.6667z"/>
<path style="fill:#3a8e91; stroke:none;" d="M61 58L61 62L62 62L61 58z"/>
<path style="fill:#296365; stroke:none;" d="M154 58L155 59L154 58z"/>
<path style="fill:#3a8e91; stroke:none;" d="M163 58L164 59L163 58M177 58L178 59L177 58z"/>
<path style="fill:#1d4748; stroke:none;" d="M188 58L189 59L188 58z"/>
<path style="fill:#3a8e91; stroke:none;" d="M303 58L303 62L304 62L303 58z"/>
<path style="fill:#296365; stroke:none;" d="M9 59L10 60L9 59z"/>
<path style="fill:#3a8e91; stroke:none;" d="M153 59L154 60L153 59z"/>
<path style="fill:#296365; stroke:none;" d="M177 59L178 60L177 59z"/>
<path style="fill:#1d4748; stroke:none;" d="M189 59L192 63L189 59z"/>
<path style="fill:#3a8e91; stroke:none;" d="M190 59L191 60L190 59z"/>
<path style="fill:#296365; stroke:none;" d="M8 60L9 61L8 60z"/>
<path style="fill:#3a8e91; stroke:none;" d="M55 60L56 61L55 60M70 60L70 68L71 68L70 60z"/>
<path style="fill:#296365; stroke:none;" d="M153.667 60.3333L154.333 60.6667L153.667 60.3333z"/>
<path style="fill:#3a8e91; stroke:none;" d="M312 60L312 68L313 68L312 60M460 60L460 61L464 61L460 60z"/>
<path style="fill:#1d4748; stroke:none;" d="M8 61L9 62L8 61M32 62L32 63L45 62L32 62z"/>
<path style="fill:#296365; stroke:none;" d="M45 61L45 62L52 62L45 61z"/>
<path style="fill:#3a8e91; stroke:none;" d="M52 61L52 63L54 61L52 61z"/>
<path style="fill:#1d4748; stroke:none;" d="M153 61L153 63L155 61L153 61M165 61L166 62L165 61z"/>
<path style="fill:#3a8e91; stroke:none;" d="M176 61L177 62L176 61M191 61L192 62L191 61M264 61L265 62L264 61M273 61L274 62L273 61z"/>
<path style="fill:#296365; stroke:none;" d="M274 61L275 62L274 61z"/>
<path style="fill:#1d4748; stroke:none;" d="M275 61L275 62L279 63L275 61z"/>
<path style="fill:#296365; stroke:none;" d="M279 61L280 62L279 61z"/>
<path style="fill:#3a8e91; stroke:none;" d="M280 61L281 62L280 61M456 61L457 62L456 61z"/>
<path style="fill:#1d4748; stroke:none;" d="M457 61L458 62L457 61z"/>
<path style="fill:#030606; stroke:none;" d="M478 96L476 95L477 98L473 101L463 101L463 100L465 100L465 99L461 100C460.381 95.2992 452.213 93.5544 448 93C449.997 97.8399 451.066 102.218 457 102L456 104L459 105L462 104C462.648 108.099 473.355 108.316 474 104L477 105L476 103L477 103L481 101L479 102L479 101L482 100C482.984 97.5494 483.388 95.6515 483.421 92.9985C483.448 90.7301 483.821 88.225 483.258 86.0039C479.81 72.3907 463.986 83.2562 457.412 76.4082C454.262 73.1262 458.733 69.6039 462.004 69.4136C467.104 69.1168 472.456 73.1081 477 75L472 67L478 69C468.643 58.7909 440.051 59.6783 448.01 78.9846C453.441 92.1592 467.177 80.4966 475.477 85.9383C477.985 87.583 477.361 93.3016 478 96z"/>
<path style="fill:#1d4748; stroke:none;" d="M465 61L466 62L465 61z"/>
<path style="fill:#296365; stroke:none;" d="M466 61L467 62L466 61z"/>
<path style="fill:#3a8e91; stroke:none;" d="M467 61L468 62L467 61M8.66667 62.3333L9.33333 62.6667L8.66667 62.3333z"/>
<path style="fill:#296365; stroke:none;" d="M10.6667 62.3333L11.3333 62.6667L10.6667 62.3333z"/>
<path style="fill:#1d4748; stroke:none;" d="M12.6667 62.3333L13.3333 62.6667L12.6667 62.3333z"/>
<path style="fill:#296365; stroke:none;" d="M42 62L43 63L42 62z"/>
<path style="fill:#3a8e91; stroke:none;" d="M43.6667 62.3333L44.3333 62.6667L43.6667 62.3333z"/>
<path style="fill:#030606; stroke:none;" d="M45 62L45 63L51 63L45 62z"/>
<path style="fill:#1d4748; stroke:none;" d="M51 62L52 63L51 62z"/>
<path style="fill:#296365; stroke:none;" d="M61 62L61 72L62 72L61 62M166 62L167 63L166 62M176 62L177 63L176 62z"/>
<path style="fill:#1d4748; stroke:none;" d="M263 62L264 63L263 62z"/>
<path style="fill:#030606; stroke:none;" d="M264 62L262 70L261 70L260 65L259 65L258 101L266 103C268.034 94.4554 265.32 79.551 272 73C271.47 70.3511 271.572 69.3931 274 70L273 68L276 69C276 64.7282 281.386 69.0154 282.667 71C284.912 74.4806 285 83.7596 285 88L286 88L286 81L287 81C287 86.609 285.082 96.2562 290 100L292 78L291 78L291 81L290 81C290.491 76.7419 291.537 69.6657 286 69C285.688 62.0165 274.753 59.2075 271 65L267 68L266 68L264 62z"/>
<path style="fill:#296365; stroke:none;" d="M271 62L272 63L271 62M282 62L283 63L282 62M303 62L303 72L304 72L303 62z"/>
<path style="fill:#3a8e91; stroke:none;" d="M454 62L455 63L454 62M469 62L470 63L469 62M18 63L18 64L24 64L18 63z"/>
<path style="fill:#1d4748; stroke:none;" d="M30 63L31 64L30 63z"/>
<path style="fill:#296365; stroke:none;" d="M32 63L33 64L32 63z"/>
<path style="fill:#3a8e91; stroke:none;" d="M33 63L33 64L39 64L33 63M118 67L127 64C123.424 62.7319 120.124 63.8994 118 67z"/>
<path style="fill:#1d4748; stroke:none;" d="M127.667 63.3333L128.333 63.6667L127.667 63.3333z"/>
<path style="fill:#296365; stroke:none;" d="M129 63L130 64L129 63z"/>
<path style="fill:#3a8e91; stroke:none;" d="M130 63L131 64L130 63M167 63L168 64L167 63z"/>
<path style="fill:#1d4748; stroke:none;" d="M185 63L186 64L185 63z"/>
<path style="fill:#296365; stroke:none;" d="M265 63L266 64L265 63z"/>
<path style="fill:#1d4748; stroke:none;" d="M270.333 63.6667L270.667 64.3333L270.333 63.6667M280 63L281 64L280 63M283 63L284 64L283 63M453 63L454 64L453 63z"/>
<path style="fill:#3a8e91; stroke:none;" d="M471 63L472 64L471 63z"/>
<path style="fill:#1d4748; stroke:none;" d="M24 64L24 71L25 71L24 64z"/>
<path style="fill:#296365; stroke:none;" d="M30.3333 64.6667L30.6667 65.3333L30.3333 64.6667z"/>
<path style="fill:#3a8e91; stroke:none;" d="M32 64L33 65L32 64M75 64L76 65L75 64z"/>
<path style="fill:#296365; stroke:none;" d="M76 64L77 65L76 64z"/>
<path style="fill:#1d4748; stroke:none;" d="M76 65L76 66L80 64L76 65z"/>
<path style="fill:#296365; stroke:none;" d="M80 64L81 65L80 64z"/>
<path style="fill:#3a8e91; stroke:none;" d="M81 64L82 65L81 64z"/>
<path style="fill:#296365; stroke:none;" d="M123.667 64.3333L124.333 64.6667L123.667 64.3333z"/>
<path style="fill:#1d4748; stroke:none;" d="M125 64L126 65L125 64z"/>
<path style="fill:#030606; stroke:none;" d="M106 78L105 81L106 87L105 87L105 84L104 84L106 91L106 100L113 107L114 107L113 105L114 105C119.639 107.38 127.377 108.857 130 102L118 103L118 102L122 102L122 101L116 102L111 85C116.315 86.0943 122.683 88.7201 128 86.0556C133.853 83.1225 140.768 69.5032 132.917 64.9444C128.381 62.3108 121.25 65.4589 117 67.4167C111.583 69.9118 110.238 75.3946 106 78z"/>
<path style="fill:#1d4748; stroke:none;" d="M132 64L133 65L132 64M167 64L168 65L167 64z"/>
<path style="fill:#3a8e91; stroke:none;" d="M175 64L176 65L175 64z"/>
<path style="fill:#1d4748; stroke:none;" d="M182 64L182 67L183 67L184 64L182 64z"/>
<path style="fill:#296365; stroke:none;" d="M184 64L185 65L184 64M192 64L193 65L192 64z"/>
<path style="fill:#3a8e91; stroke:none;" d="M259 64L260 65L259 64M262 64L263 65L262 64z"/>
<path style="fill:#1d4748; stroke:none;" d="M265 64L266 65L265 64z"/>
<path style="fill:#3a8e91; stroke:none;" d="M268 64L269 65L268 64M285 64L286 65L285 64M317 64L318 65L317 64z"/>
<path style="fill:#296365; stroke:none;" d="M318 64L319 65L318 64z"/>
<path style="fill:#1d4748; stroke:none;" d="M318 65L318 66L322 64L318 65z"/>
<path style="fill:#296365; stroke:none;" d="M322 64L323 65L322 64z"/>
<path style="fill:#3a8e91; stroke:none;" d="M323 64L324 65L323 64M391 64L392 65L391 64M451 64L452 65L451 64z"/>
<path style="fill:#1d4748; stroke:none;" d="M472 64L473 65L472 64z"/>
<path style="fill:#296365; stroke:none;" d="M32.3333 65.6667L32.6667 66.3333L32.3333 65.6667z"/>
<path style="fill:#3a8e91; stroke:none;" d="M73 65L74 66L73 65z"/>
<path style="fill:#1d4748; stroke:none;" d="M83 65L84 66L83 65M121 65L122 66L121 65z"/>
<path style="fill:#3a8e91; stroke:none;" d="M134 65L135 66L134 65M152.333 65.6667L152.667 66.3333L152.333 65.6667z"/>
<path style="fill:#296365; stroke:none;" d="M168 65L169 66L168 65z"/>
<path style="fill:#1d4748; stroke:none;" d="M175 65L176 66L175 65z"/>
<path style="fill:#3a8e91; stroke:none;" d="M183 65L182 69L183 69L183 65z"/>
<path style="fill:#1d4748; stroke:none;" d="M185 65L187 67L187 65L185 65z"/>
<path style="fill:#296365; stroke:none;" d="M258 65L258 70L259 70L258 65z"/>
<path style="fill:#1d4748; stroke:none;" d="M260 65L261 66L260 65M262 65L263 66L262 65z"/>
<path style="fill:#3a8e91; stroke:none;" d="M267 65L268 66L267 65z"/>
<path style="fill:#1d4748; stroke:none;" d="M269 65L268 67L269 65z"/>
<path style="fill:#3a8e91; stroke:none;" d="M286 65L287 66L286 65M315 65L316 66L315 65z"/>
<path style="fill:#1d4748; stroke:none;" d="M325 65L326 66L325 65M390 65L391 66L390 65z"/>
<path style="fill:#030606; stroke:none;" d="M391 65L385 70L386 73L384 72L385 76L384 76L383 74L382 82L380 81L381 84C376.361 84.611 372.468 95.7059 371 100L370 100C370 96.0492 368.215 74.9132 361 86L360 97L359 97L357 96L348 69L347 69L347 78L345 78L344 73L343 73C344.542 83.4378 350.4 114.111 364 101L365 107L364 107L364 105L363 105L363 109C376.117 109.802 389.679 89.3772 388 77L390 78L389 75L391 76L391 65z"/>
<path style="fill:#296365; stroke:none;" d="M392 65L393 66L392 65z"/>
<path style="fill:#3a8e91; stroke:none;" d="M450 65L451 66L450 65z"/>
<path style="fill:#296365; stroke:none;" d="M474 65L475 66L474 65z"/>
<path style="fill:#1d4748; stroke:none;" d="M30 66L31 77L32 77L30 66M72 66L73 67L72 66M74.6667 66.3333L75.3333 66.6667L74.6667 66.3333z"/>
<path style="fill:#3a8e91; stroke:none;" d="M85 66L86 67L85 66z"/>
<path style="fill:#1d4748; stroke:none;" d="M119 66L120 67L119 66z"/>
<path style="fill:#3a8e91; stroke:none;" d="M174 66L175 67L174 66M185 66L186 67L185 66M193 66L194 67L193 66M216.667 66.3333L217.333 66.6667L216.667 66.3333z"/>
<path style="fill:#296365; stroke:none;" d="M218 66L219 67L218 66z"/>
<path style="fill:#1d4748; stroke:none;" d="M219.667 66.3333L220.333 66.6667L219.667 66.3333z"/>
<path style="fill:#030606; stroke:none;" d="M211 69L211 70L219 71L219 72L215 73L215 74C232.8 74.002 236.164 83.8405 241 99L229 101L229 100L232 100L232 99C222.377 99.171 221.976 97.942 220 89L224 89L222 88L222 87L235 86C232.354 81.801 226.643 81.5995 222 81L222 82L225 82L225 83L220 82L214 88C214.003 92.4304 213.503 98.0462 216.854 101.528C221.22 106.063 240.945 109.314 245.397 103.721C248.554 99.7544 246.814 92.4592 245.764 88C241.578 70.224 228.052 62.7739 211 69z"/>
<path style="fill:#1d4748; stroke:none;" d="M225.667 66.3333L226.333 66.6667L225.667 66.3333z"/>
<path style="fill:#296365; stroke:none;" d="M227 66L228 67L227 66z"/>
<path style="fill:#3a8e91; stroke:none;" d="M228 66L229 67L228 66M266 66L267 67L266 66z"/>
<path style="fill:#1d4748; stroke:none;" d="M314 66L315 67L314 66M316.667 66.3333L317.333 66.6667L316.667 66.3333z"/>
<path style="fill:#3a8e91; stroke:none;" d="M327 66L328 67L327 66M389 66L390 67L389 66z"/>
<path style="fill:#1d4748; stroke:none;" d="M392.333 66.6667L392.667 67.3333L392.333 66.6667z"/>
<path style="fill:#3a8e91; stroke:none;" d="M406.667 66.3333L407.333 66.6667L406.667 66.3333z"/>
<path style="fill:#296365; stroke:none;" d="M408 66L409 67L408 66z"/>
<path style="fill:#1d4748; stroke:none;" d="M409.667 66.3333L410.333 66.6667L409.667 66.3333z"/>
<path style="fill:#030606; stroke:none;" d="M401 69L401 70L409 71L409 72L405 73L405 74C422.8 74.002 426.164 83.8405 431 99L419 101L419 100L422 100L422 99C412.377 99.171 411.976 97.942 410 89L414 89L412 88L412 87L425 86C422.354 81.801 416.643 81.5995 412 81L412 82L415 82L415 83L410 82L404 88C404.003 92.4304 403.503 98.0462 406.854 101.528C411.22 106.063 430.945 109.314 435.397 103.721C438.554 99.7544 436.814 92.4592 435.764 88C431.578 70.2241 418.052 62.7739 401 69z"/>
<path style="fill:#1d4748; stroke:none;" d="M415.667 66.3333L416.333 66.6667L415.667 66.3333z"/>
<path style="fill:#296365; stroke:none;" d="M417 66L418 67L417 66z"/>
<path style="fill:#3a8e91; stroke:none;" d="M418 66L419 67L418 66z"/>
<path style="fill:#1d4748; stroke:none;" d="M475 66L476 67L475 66z"/>
<path style="fill:#3a8e91; stroke:none;" d="M32 67L33 68L32 67z"/>
<path style="fill:#1d4748; stroke:none;" d="M83 67L83 68L87 70L83 67z"/>
<path style="fill:#3a8e91; stroke:none;" d="M86 67L87 68L86 67M114 67L110 70L110 71L114 67M116 67L117 68L116 67z"/>
<path style="fill:#1d4748; stroke:none;" d="M135 67L136 68L135 67z"/>
<path style="fill:#296365; stroke:none;" d="M152 67L153 68L152 67M169 67L170 68L169 67z"/>
<path style="fill:#1d4748; stroke:none;" d="M174 67L175 68L174 67M187.333 67.6667L187.667 68.3333L187.333 67.6667M193 67L194 68L193 67z"/>
<path style="fill:#3a8e91; stroke:none;" d="M213 67L214 68L213 67z"/>
<path style="fill:#296365; stroke:none;" d="M214 67L215 68L214 67z"/>
<path style="fill:#1d4748; stroke:none;" d="M230 67L231 68L230 67z"/>
<path style="fill:#3a8e91; stroke:none;" d="M231 67L232 68L231 67z"/>
<path style="fill:#1d4748; stroke:none;" d="M266 67L267 68L266 67M275 67L275 68L284 73C281.823 69.0327 279.493 67.5019 275 67M286 67L286 69L288 67L286 67M325 67L325 68L329 70L325 67z"/>
<path style="fill:#3a8e91; stroke:none;" d="M328 67L329 68L328 67M403 67L404 68L403 67z"/>
<path style="fill:#296365; stroke:none;" d="M404 67L405 68L404 67z"/>
<path style="fill:#1d4748; stroke:none;" d="M420 67L421 68L420 67z"/>
<path style="fill:#3a8e91; stroke:none;" d="M421 67L422 68L421 67z"/>
<path style="fill:#1d4748; stroke:none;" d="M449 67L450 68L449 67M472.667 67.3333L473.333 67.6667L472.667 67.3333z"/>
<path style="fill:#3a8e91; stroke:none;" d="M477 67L478 68L477 67M87 68L88 69L87 68M136 68L137 69L136 68z"/>
<path style="fill:#1d4748; stroke:none;" d="M152.333 68.6667L152.667 69.3333L152.333 68.6667M160 68L160 70L162 68L160 68z"/>
<path style="fill:#296365; stroke:none;" d="M186 68L187 69L186 68z"/>
<path style="fill:#3a8e91; stroke:none;" d="M211 68L212 69L211 68z"/>
<path style="fill:#1d4748; stroke:none;" d="M212 68L213 69L212 68z"/>
<path style="fill:#296365; stroke:none;" d="M233 68L234 69L233 68z"/>
<path style="fill:#1d4748; stroke:none;" d="M273 68L274 70L271 72L275 68L273 68z"/>
<path style="fill:#3a8e91; stroke:none;" d="M288 68L289 69L288 68M329 68L330 69L329 68M388 68L389 69L388 68z"/>
<path style="fill:#296365; stroke:none;" d="M392 68L393 69L392 68z"/>
<path style="fill:#3a8e91; stroke:none;" d="M401 68L402 69L401 68z"/>
<path style="fill:#1d4748; stroke:none;" d="M402 68L403 69L402 68z"/>
<path style="fill:#296365; stroke:none;" d="M423 68L424 69L423 68z"/>
<path style="fill:#3a8e91; stroke:none;" d="M448 68L449 69L448 68M473 68L476 70L476 69L473 68z"/>
<path style="fill:#296365; stroke:none;" d="M474 68L475 69L474 68z"/>
<path style="fill:#3a8e91; stroke:none;" d="M478 68L479 69L478 68M32 69L33 70L32 69M88 69L89 70L88 69z"/>
<path style="fill:#1d4748; stroke:none;" d="M113 69L114 70L113 69z"/>
<path style="fill:#296365; stroke:none;" d="M136 69L137 70L136 69z"/>
<path style="fill:#3a8e91; stroke:none;" d="M161 69L162 70L161 69z"/>
<path style="fill:#296365; stroke:none;" d="M170 69L171 70L170 69M173 69L174 70L173 69z"/>
<path style="fill:#3a8e91; stroke:none;" d="M181 69L182 70L181 69z"/>
<path style="fill:#296365; stroke:none;" d="M194 69L195 70L194 69z"/>
<path style="fill:#3a8e91; stroke:none;" d="M210 69L211 70L210 69M235 69L236 70L235 69M261 69L262 70L261 69M277 69L277 70L280 70L277 69z"/>
<path style="fill:#1d4748; stroke:none;" d="M287 69L288 70L287 69z"/>
<path style="fill:#3a8e91; stroke:none;" d="M330 69L331 70L330 69M346 69L347 70L346 69M348 69L349 70L348 69M385 69L386 70L385 69z"/>
<path style="fill:#296365; stroke:none;" d="M386.333 69.6667L386.667 70.3333L386.333 69.6667z"/>
<path style="fill:#3a8e91; stroke:none;" d="M392 69L393 70L392 69M400 69L401 70L400 69M425 69L426 70L425 69z"/>
<path style="fill:#296365; stroke:none;" d="M459 69L460 70L459 69z"/>
<path style="fill:#3a8e91; stroke:none;" d="M460 69L461 70L460 69M462.667 69.3333L463.333 69.6667L462.667 69.3333z"/>
<path style="fill:#296365; stroke:none;" d="M464 69L465 70L464 69z"/>
<path style="fill:#1d4748; stroke:none;" d="M476.667 69.3333L477.333 69.6667L476.667 69.3333z"/>
<path style="fill:#296365; stroke:none;" d="M32.3333 70.6667L32.6667 71.3333L32.3333 70.6667M77 70L78 71L77 70z"/>
<path style="fill:#1d4748; stroke:none;" d="M78 70L77 72L79 72L78 70z"/>
<path style="fill:#296365; stroke:none;" d="M111 70L112 71L111 70z"/>
<path style="fill:#1d4748; stroke:none;" d="M136 70L136 73L137 73L136 70z"/>
<path style="fill:#296365; stroke:none;" d="M160 70L161 71L160 70z"/>
<path style="fill:#1d4748; stroke:none;" d="M162 70L165 73L162 70z"/>
<path style="fill:#3a8e91; stroke:none;" d="M172 70L173 71L172 70z"/>
<path style="fill:#1d4748; stroke:none;" d="M187 70L188 71L187 70z"/>
<path style="fill:#296365; stroke:none;" d="M211 70L212 71L211 70z"/>
<path style="fill:#1d4748; stroke:none;" d="M212.667 70.3333L213.333 70.6667L212.667 70.3333M236 70L237 71L236 70M258 70L258 75L259 75L258 70z"/>
<path style="fill:#3a8e91; stroke:none;" d="M274 70L275 71L274 70M289 70L290 71L289 70z"/>
<path style="fill:#296365; stroke:none;" d="M319 70L320 71L319 70z"/>
<path style="fill:#1d4748; stroke:none;" d="M320 70L319 72L321 72L320 70z"/>
<path style="fill:#296365; stroke:none;" d="M346 70L346 74L347 74L346 70z"/>
<path style="fill:#1d4748; stroke:none;" d="M391 70L392 71L391 70z"/>
<path style="fill:#296365; stroke:none;" d="M401 70L402 71L401 70z"/>
<path style="fill:#1d4748; stroke:none;" d="M402.667 70.3333L403.333 70.6667L402.667 70.3333M426 70L427 71L426 70z"/>
<path style="fill:#3a8e91; stroke:none;" d="M447 70L448 71L447 70z"/>
<path style="fill:#1d4748; stroke:none;" d="M457 70L458 71L457 70z"/>
<path style="fill:#3a8e91; stroke:none;" d="M466 70L467 71L466 70z"/>
<path style="fill:#1d4748; stroke:none;" d="M467 70L468 71L467 70z"/>
<path style="fill:#296365; stroke:none;" d="M24 71L24 74L25 74L24 71z"/>
<path style="fill:#1d4748; stroke:none;" d="M75 71L74 76L75 76L75 71z"/>
<path style="fill:#3a8e91; stroke:none;" d="M75 72L75 73L80 73L75 72z"/>
<path style="fill:#296365; stroke:none;" d="M89 71L90 72L89 71M109 71L109 73L111 71L109 71z"/>
<path style="fill:#3a8e91; stroke:none;" d="M151.333 71.6667L151.667 72.3333L151.333 71.6667M160 71L161 72L160 71M162 71L163 72L162 71z"/>
<path style="fill:#296365; stroke:none;" d="M171 71L172 72L171 71z"/>
<path style="fill:#1d4748; stroke:none;" d="M172 71L173 72L172 71z"/>
<path style="fill:#3a8e91; stroke:none;" d="M180 71L181 72L180 71M187 71L188 72L187 71M195 71L196 72L195 71z"/>
<path style="fill:#296365; stroke:none;" d="M218 71L219 72L218 71z"/>
<path style="fill:#1d4748; stroke:none;" d="M237 71L238 72L237 71z"/>
<path style="fill:#3a8e91; stroke:none;" d="M273 71L274 72L273 71z"/>
<path style="fill:#1d4748; stroke:none;" d="M289 71L290 72L289 71M317 71L316 76L317 76L317 71z"/>
<path style="fill:#3a8e91; stroke:none;" d="M317 72L317 73L322 73L317 72z"/>
<path style="fill:#296365; stroke:none;" d="M331 71L332 72L331 71z"/>
<path style="fill:#3a8e91; stroke:none;" d="M349 71L350 72L349 71z"/>
<path style="fill:#296365; stroke:none;" d="M384 71L385 72L384 71z"/>
<path style="fill:#1d4748; stroke:none;" d="M385.333 71.6667L385.667 72.3333L385.333 71.6667z"/>
<path style="fill:#3a8e91; stroke:none;" d="M391 71L391 75L392 75L391 71z"/>
<path style="fill:#296365; stroke:none;" d="M408 71L409 72L408 71z"/>
<path style="fill:#1d4748; stroke:none;" d="M427 71L428 72L427 71M447 71L448 72L447 71M456 71L457 72L456 71z"/>
<path style="fill:#296365; stroke:none;" d="M469 71L470 72L469 71z"/>
<path style="fill:#1d4748; stroke:none;" d="M475 71L476 72L475 71z"/>
<path style="fill:#3a8e91; stroke:none;" d="M61 72L61 78L62 78L61 72z"/>
<path style="fill:#296365; stroke:none;" d="M76 72L77 73L76 72z"/>
<path style="fill:#1d4748; stroke:none;" d="M80 72L81 73L80 72z"/>
<path style="fill:#3a8e91; stroke:none;" d="M108 72L104 82L105 82L108 72z"/>
<path style="fill:#1d4748; stroke:none;" d="M124 72L125 73L124 72z"/>
<path style="fill:#296365; stroke:none;" d="M125 72L126 73L125 72z"/>
<path style="fill:#3a8e91; stroke:none;" d="M126 72L128 74L126 72z"/>
<path style="fill:#5de1e7; stroke:none;" d="M127 72L128 73L127 72z"/>
<path style="fill:#1d4748; stroke:none;" d="M179 72L180 73L179 72z"/>
<path style="fill:#296365; stroke:none;" d="M195 72L196 73L195 72z"/>
<path style="fill:#3a8e91; stroke:none;" d="M214 72L215 73L214 72z"/>
<path style="fill:#1d4748; stroke:none;" d="M215 72L216 73L215 72M238 72L239 73L238 72z"/>
<path style="fill:#296365; stroke:none;" d="M272 72L269 80L272 72z"/>
<path style="fill:#3a8e91; stroke:none;" d="M282 72L283 73L282 72M290 72L291 73L290 72M303 72L303 78L304 78L303 72z"/>
<path style="fill:#296365; stroke:none;" d="M318 72L319 73L318 72z"/>
<path style="fill:#1d4748; stroke:none;" d="M322 72L323 73L322 72M349 72L350 73L349 72M390 72L391 73L390 72z"/>
<path style="fill:#3a8e91; stroke:none;" d="M404 72L405 73L404 72z"/>
<path style="fill:#1d4748; stroke:none;" d="M405 72L406 73L405 72M428 72L429 73L428 72z"/>
<path style="fill:#296365; stroke:none;" d="M471 72L472 73L471 72M476 72L477 73L476 72z"/>
<path style="fill:#3a8e91; stroke:none;" d="M74 73L75 74L74 73M81 73L82 74L81 73z"/>
<path style="fill:#1d4748; stroke:none;" d="M82 73L83 74L82 73M90 73L91 74L90 73M121 73L122 74L121 73z"/>
<path style="fill:#3a8e91; stroke:none;" d="M122 73L123 74L122 73z"/>
<path style="fill:#5de1e7; stroke:none;" d="M116 78C121.278 78.9322 125.308 78.6993 127 73L116 78z"/>
<path style="fill:#296365; stroke:none;" d="M136 73L137 74L136 73z"/>
<path style="fill:#1d4748; stroke:none;" d="M151 73L152 74L151 73z"/>
<path style="fill:#296365; stroke:none;" d="M163.667 73.3333L164.333 73.6667L163.667 73.3333z"/>
<path style="fill:#3a8e91; stroke:none;" d="M179 73L180 74L179 73z"/>
<path style="fill:#1d4748; stroke:none;" d="M188 73L189 74L188 73M214 73L216 75L214 73z"/>
<path style="fill:#296365; stroke:none;" d="M239 73L240 74L239 73z"/>
<path style="fill:#1d4748; stroke:none;" d="M270 73L269 76L270 73z"/>
<path style="fill:#296365; stroke:none;" d="M282 73L283 74L282 73z"/>
<path style="fill:#1d4748; stroke:none;" d="M284 73L285 81L286 81L284 73z"/>
<path style="fill:#296365; stroke:none;" d="M290 73L291 74L290 73z"/>
<path style="fill:#3a8e91; stroke:none;" d="M316 73L317 74L316 73M323 73L324 74L323 73z"/>
<path style="fill:#1d4748; stroke:none;" d="M324 73L325 74L324 73M332 73L333 74L332 73z"/>
<path style="fill:#3a8e91; stroke:none;" d="M342.333 73.6667L342.667 74.3333L342.333 73.6667z"/>
<path style="fill:#1d4748; stroke:none;" d="M344 73L345 74L344 73z"/>
<path style="fill:#3a8e91; stroke:none;" d="M350 73L351 74L350 73z"/>
<path style="fill:#1d4748; stroke:none;" d="M383 73L384 76L385 76L385 73L383 73z"/>
<path style="fill:#296365; stroke:none;" d="M391 73L392 74L391 73z"/>
<path style="fill:#1d4748; stroke:none;" d="M404 73L406 75L404 73z"/>
<path style="fill:#296365; stroke:none;" d="M429 73L430 74L429 73M455 73L456 74L455 73z"/>
<path style="fill:#1d4748; stroke:none;" d="M473 73L474 74L473 73z"/>
<path style="fill:#3a8e91; stroke:none;" d="M24 74L24 77L25 77L24 74z"/>
<path style="fill:#296365; stroke:none;" d="M73.3333 74.6667L73.6667 75.3333L73.3333 74.6667z"/>
<path style="fill:#3a8e91; stroke:none;" d="M75 74L76 75L75 74z"/>
<path style="fill:#1d4748; stroke:none;" d="M83 74L85 76L83 74M108.333 74.6667L108.667 75.3333L108.333 74.6667z"/>
<path style="fill:#296365; stroke:none;" d="M119 74L120 75L119 74M127 74L128 75L127 74z"/>
<path style="fill:#3a8e91; stroke:none;" d="M136 74L137 75L136 74z"/>
<path style="fill:#1d4748; stroke:none;" d="M159 74L160 75L159 74M164 74L164 76L166 74L164 74z"/>
<path style="fill:#296365; stroke:none;" d="M178 74L179 75L178 74z"/>
<path style="fill:#3a8e91; stroke:none;" d="M188.333 74.6667L188.667 75.3333L188.333 74.6667M196 74L197 75L196 74M214 74L215 75L214 74z"/>
<path style="fill:#296365; stroke:none;" d="M216 74L217 75L216 74z"/>
<path style="fill:#3a8e91; stroke:none;" d="M217 74L217 75L220 75L217 74M222.667 74.3333L223.333 74.6667L222.667 74.3333z"/>
<path style="fill:#296365; stroke:none;" d="M224 74L225 75L224 74z"/>
<path style="fill:#1d4748; stroke:none;" d="M225 74L226 75L225 74z"/>
<path style="fill:#3a8e91; stroke:none;" d="M240 74L241 75L240 74M282 74L283 75L282 74z"/>
<path style="fill:#296365; stroke:none;" d="M315.333 74.6667L315.667 75.3333L315.333 74.6667z"/>
<path style="fill:#3a8e91; stroke:none;" d="M317 74L318 75L317 74z"/>
<path style="fill:#1d4748; stroke:none;" d="M325 74L327 76L325 74z"/>
<path style="fill:#3a8e91; stroke:none;" d="M346 74L346 78L347 78L346 74z"/>
<path style="fill:#296365; stroke:none;" d="M350 74L351 75L350 74M390 74L391 75L390 74z"/>
<path style="fill:#3a8e91; stroke:none;" d="M404 74L405 75L404 74z"/>
<path style="fill:#296365; stroke:none;" d="M406 74L407 75L406 74z"/>
<path style="fill:#3a8e91; stroke:none;" d="M407 74L407 75L410 75L407 74M412.667 74.3333L413.333 74.6667L412.667 74.3333z"/>
<path style="fill:#296365; stroke:none;" d="M414 74L415 75L414 74z"/>
<path style="fill:#1d4748; stroke:none;" d="M415 74L416 75L415 74z"/>
<path style="fill:#3a8e91; stroke:none;" d="M430 74L431 75L430 74M455.333 74.6667L455.667 75.3333L455.333 74.6667M474 74L475 75L474 74z"/>
<path style="fill:#1d4748; stroke:none;" d="M475 74L476 75L475 74z"/>
<path style="fill:#3a8e91; stroke:none;" d="M33 75L33 82L34 82L33 75z"/>
<path style="fill:#296365; stroke:none;" d="M83.3333 75.6667L83.6667 76.3333L83.3333 75.6667z"/>
<path style="fill:#3a8e91; stroke:none;" d="M91 75L92 76L91 75z"/>
<path style="fill:#296365; stroke:none;" d="M107 75L108 76L107 75z"/>
<path style="fill:#1d4748; stroke:none;" d="M117 75L118 76L117 75z"/>
<path style="fill:#3a8e91; stroke:none;" d="M150 75L151 76L150 75z"/>
<path style="fill:#296365; stroke:none;" d="M159 75L160 76L159 75M165 75L166 80L167 80L165 75M196 75L197 76L196 75z"/>
<path style="fill:#3a8e91; stroke:none;" d="M227 75L228 76L227 75z"/>
<path style="fill:#1d4748; stroke:none;" d="M228 75L229 76L228 75z"/>
<path style="fill:#3a8e91; stroke:none;" d="M291 75L292 76L291 75z"/>
<path style="fill:#296365; stroke:none;" d="M325.333 75.6667L325.667 76.3333L325.333 75.6667z"/>
<path style="fill:#3a8e91; stroke:none;" d="M333 75L334 76L333 75z"/>
<path style="fill:#296365; stroke:none;" d="M382 75L383 76L382 75M389.333 75.6667L389.667 76.3333L389.333 75.6667z"/>
<path style="fill:#3a8e91; stroke:none;" d="M417 75L418 76L417 75z"/>
<path style="fill:#1d4748; stroke:none;" d="M418 75L419 76L418 75M72 76L72 78L74 78L72 76z"/>
<path style="fill:#3a8e91; stroke:none;" d="M74 76L75 77L74 76z"/>
<path style="fill:#1d4748; stroke:none;" d="M85 76L84 79L85 76M91 76L92 77L91 76z"/>
<path style="fill:#3a8e91; stroke:none;" d="M116 76L117 77L116 76z"/>
<path style="fill:#1d4748; stroke:none;" d="M126 76L127 77L126 76M135 76L136 77L135 76z"/>
<path style="fill:#296365; stroke:none;" d="M150 76L151 77L150 76z"/>
<path style="fill:#3a8e91; stroke:none;" d="M159 76L160 77L159 76M164 76L165 77L164 76M177 76L174 82L179 76L177 76z"/>
<path style="fill:#296365; stroke:none;" d="M188 76L189 77L188 76z"/>
<path style="fill:#1d4748; stroke:none;" d="M196 76L197 77L196 76z"/>
<path style="fill:#3a8e91; stroke:none;" d="M229 76L230 77L229 76z"/>
<path style="fill:#1d4748; stroke:none;" d="M241 76L242 77L241 76z"/>
<path style="fill:#3a8e91; stroke:none;" d="M271 76L272 77L271 76z"/>
<path style="fill:#1d4748; stroke:none;" d="M283 76L284 77L283 76z"/>
<path style="fill:#296365; stroke:none;" d="M291 76L292 77L291 76z"/>
<path style="fill:#1d4748; stroke:none;" d="M314 76L314 78L316 78L314 76z"/>
<path style="fill:#3a8e91; stroke:none;" d="M316 76L317 77L316 76z"/>
<path style="fill:#1d4748; stroke:none;" d="M327 76L326 79L327 76M333 76L334 77L333 76M343 76L344 77L343 76z"/>
<path style="fill:#296365; stroke:none;" d="M345 76L346 77L345 76z"/>
<path style="fill:#3a8e91; stroke:none;" d="M351 76L352 77L351 76z"/>
<path style="fill:#1d4748; stroke:none;" d="M383 76L382 80L383 80L383 76M390 76L391 77L390 76z"/>
<path style="fill:#3a8e91; stroke:none;" d="M419 76L420 77L419 76z"/>
<path style="fill:#1d4748; stroke:none;" d="M431 76L432 77L431 76z"/>
<path style="fill:#296365; stroke:none;" d="M106 77L107 78L106 77z"/>
<path style="fill:#1d4748; stroke:none;" d="M107 77L108 78L107 77z"/>
<path style="fill:#3a8e91; stroke:none;" d="M115 77L116 78L115 77z"/>
<path style="fill:#1d4748; stroke:none;" d="M125 77L126 78L125 77z"/>
<path style="fill:#3a8e91; stroke:none;" d="M135 77L136 78L135 77z"/>
<path style="fill:#1d4748; stroke:none;" d="M150 77L151 78L150 77M166 77L167 78L166 77z"/>
<path style="fill:#296365; stroke:none;" d="M176 77L177 78L176 77z"/>
<path style="fill:#3a8e91; stroke:none;" d="M188 77L189 78L188 77z"/>
<path style="fill:#1d4748; stroke:none;" d="M231 77L232 78L231 77z"/>
<path style="fill:#3a8e91; stroke:none;" d="M242 77L243 78L242 77M283.333 77.6667L283.667 78.3333L283.333 77.6667z"/>
<path style="fill:#1d4748; stroke:none;" d="M290 77L290 81L291 81L292 77L290 77z"/>
<path style="fill:#3a8e91; stroke:none;" d="M343 77L344 78L343 77z"/>
<path style="fill:#1d4748; stroke:none;" d="M345 77L346 78L345 77z"/>
<path style="fill:#296365; stroke:none;" d="M351 77L352 78L351 77M381 77L382 78L381 77z"/>
<path style="fill:#1d4748; stroke:none;" d="M388 77L390 79L388 77z"/>
<path style="fill:#3a8e91; stroke:none;" d="M390 77L391 78L390 77z"/>
<path style="fill:#1d4748; stroke:none;" d="M421 77L422 78L421 77z"/>
<path style="fill:#3a8e91; stroke:none;" d="M432 77L433 78L432 77M457 77L458 78L457 77M467 77L467 78L470 78L467 77z"/>
<path style="fill:#296365; stroke:none;" d="M73 78L74 79L73 78z"/>
<path style="fill:#3a8e91; stroke:none;" d="M92 78L93 79L92 78z"/>
<path style="fill:#1d4748; stroke:none;" d="M116 78L117 79L116 78z"/>
<path style="fill:#296365; stroke:none;" d="M117 78L118 79L117 78z"/>
<path style="fill:#3a8e91; stroke:none;" d="M118 78L119 79L118 78M123 78L124 79L123 78M165 78L166 79L165 78z"/>
<path style="fill:#1d4748; stroke:none;" d="M175 78L173 82L174 82L175 78z"/>
<path style="fill:#3a8e91; stroke:none;" d="M197 78L198 79L197 78z"/>
<path style="fill:#1d4748; stroke:none;" d="M232 78L233 79L232 78M242 78L243 79L242 78M269 78L270 79L269 78z"/>
<path style="fill:#296365; stroke:none;" d="M315 78L316 79L315 78z"/>
<path style="fill:#3a8e91; stroke:none;" d="M334 78L335 79L334 78z"/>
<path style="fill:#296365; stroke:none;" d="M388 78L389 79L388 78z"/>
<path style="fill:#1d4748; stroke:none;" d="M422 78L423 79L422 78M432 78L433 79L432 78M447 78L448 79L447 78M462 78L463 79L462 78M474 78L475 79L474 78z"/>
<path style="fill:#296365; stroke:none;" d="M475 78L476 79L475 78z"/>
<path style="fill:#3a8e91; stroke:none;" d="M476 78L477 79L476 78M73.3333 79.6667L73.6667 80.3333L73.3333 79.6667M84 79L85 80L84 79z"/>
<path style="fill:#1d4748; stroke:none;" d="M86 79L86 83L87 83L86 79M92 79L93 80L92 79z"/>
<path style="fill:#296365; stroke:none;" d="M105 79L106 80L105 79z"/>
<path style="fill:#1d4748; stroke:none;" d="M106 79L105 81L107 81L106 79z"/>
<path style="fill:#296365; stroke:none;" d="M134 79L135 80L134 79M149 79L150 80L149 79M158 79L159 80L158 79z"/>
<path style="fill:#1d4748; stroke:none;" d="M167 79L168 80L167 79z"/>
<path style="fill:#296365; stroke:none;" d="M175 79L176 80L175 79z"/>
<path style="fill:#1d4748; stroke:none;" d="M189 79L190 80L189 79z"/>
<path style="fill:#296365; stroke:none;" d="M197 79L198 80L197 79z"/>
<path style="fill:#1d4748; stroke:none;" d="M233 79L234 80L233 79z"/>
<path style="fill:#3a8e91; stroke:none;" d="M243 79L244 80L243 79M315.333 79.6667L315.667 80.3333L315.333 79.6667M326 79L327 80L326 79z"/>
<path style="fill:#1d4748; stroke:none;" d="M328 79L328 83L329 83L328 79M334 79L335 80L334 79M344 79L345 80L344 79z"/>
<path style="fill:#3a8e91; stroke:none;" d="M352 79L353 80L352 79M380 79L381 80L380 79z"/>
<path style="fill:#1d4748; stroke:none;" d="M387.333 79.6667L387.667 80.3333L387.333 79.6667z"/>
<path style="fill:#3a8e91; stroke:none;" d="M389 79L390 80L389 79z"/>
<path style="fill:#1d4748; stroke:none;" d="M423 79L424 80L423 79z"/>
<path style="fill:#3a8e91; stroke:none;" d="M433 79L434 80L433 79M447 79L448 80L447 79M478 79L479 80L478 79z"/>
<path style="fill:#1d4748; stroke:none;" d="M25.3333 80.6667L25.6667 81.3333L25.3333 80.6667M72.3333 80.6667L72.6667 81.3333L72.3333 80.6667z"/>
<path style="fill:#3a8e91; stroke:none;" d="M158 80L159 81L158 80M167 80L167 81L173 83L173 82L167 80z"/>
<path style="fill:#296365; stroke:none;" d="M169 80L170 81L169 80M189 80L190 81L189 80z"/>
<path style="fill:#1d4748; stroke:none;" d="M197 80L198 81L197 80z"/>
<path style="fill:#3a8e91; stroke:none;" d="M224.667 80.3333L225.333 80.6667L224.667 80.3333z"/>
<path style="fill:#296365; stroke:none;" d="M226 80L226 81L231 83L226 80z"/>
<path style="fill:#3a8e91; stroke:none;" d="M230 80L231 81L230 80z"/>
<path style="fill:#1d4748; stroke:none;" d="M243 80L244 81L243 80z"/>
<path style="fill:#3a8e91; stroke:none;" d="M269 80L267 96L268 96L271 80L269 80M292 80L293 81L292 80z"/>
<path style="fill:#1d4748; stroke:none;" d="M314.333 80.6667L314.667 81.3333L314.333 80.6667z"/>
<path style="fill:#3a8e91; stroke:none;" d="M344 80L345 81L344 80z"/>
<path style="fill:#296365; stroke:none;" d="M352 80L353 81L352 80z"/>
<path style="fill:#1d4748; stroke:none;" d="M380 80L382 82L382 80L380 80z"/>
<path style="fill:#3a8e91; stroke:none;" d="M414.667 80.3333L415.333 80.6667L414.667 80.3333z"/>
<path style="fill:#296365; stroke:none;" d="M416 80L416 81L421 83L416 80z"/>
<path style="fill:#3a8e91; stroke:none;" d="M420 80L421 81L420 80z"/>
<path style="fill:#1d4748; stroke:none;" d="M433 80L434 81L433 80M448 80L449 81L448 80z"/>
<path style="fill:#3a8e91; stroke:none;" d="M480 80L481 81L480 80z"/>
<path style="fill:#296365; stroke:none;" d="M34 81L34 85L35 85L34 81z"/>
<path style="fill:#3a8e91; stroke:none;" d="M133 81L134 82L133 81M148 81L149 82L148 81z"/>
<path style="fill:#296365; stroke:none;" d="M172 81L173 82L172 81z"/>
<path style="fill:#3a8e91; stroke:none;" d="M189 81L190 82L189 81z"/>
<path style="fill:#1d4748; stroke:none;" d="M191.333 81.6667L191.667 82.3333L191.333 81.6667M196.333 81.6667L196.667 82.3333L196.333 81.6667z"/>
<path style="fill:#3a8e91; stroke:none;" d="M220 81L221 82L220 81z"/>
<path style="fill:#296365; stroke:none;" d="M221 81L222 82L221 81z"/>
<path style="fill:#1d4748; stroke:none;" d="M225 81L225 82L228 82L225 81z"/>
<path style="fill:#3a8e91; stroke:none;" d="M234 81L235 82L234 81z"/>
<path style="fill:#1d4748; stroke:none;" d="M284 81L285 82L284 81M286 81L287 82L286 81M291 81L291 94L292 94L291 81z"/>
<path style="fill:#296365; stroke:none;" d="M292 81L293 82L292 81z"/>
<path style="fill:#3a8e91; stroke:none;" d="M379 81L380 82L379 81z"/>
<path style="fill:#296365; stroke:none;" d="M388 81L389 82L388 81z"/>
<path style="fill:#3a8e91; stroke:none;" d="M410 81L411 82L410 81z"/>
<path style="fill:#296365; stroke:none;" d="M411 81L412 82L411 81z"/>
<path style="fill:#1d4748; stroke:none;" d="M415 81L415 82L418 82L415 81z"/>
<path style="fill:#3a8e91; stroke:none;" d="M424 81L425 82L424 81M481 81L482 82L481 81z"/>
<path style="fill:#296365; stroke:none;" d="M25 82L26 83L25 82z"/>
<path style="fill:#3a8e91; stroke:none;" d="M72 82L72 85L73 85L72 82z"/>
<path style="fill:#296365; stroke:none;" d="M85 82L86 83L85 82z"/>
<path style="fill:#3a8e91; stroke:none;" d="M93 82L94 83L93 82z"/>
<path style="fill:#296365; stroke:none;" d="M104 82L105 83L104 82z"/>
<path style="fill:#1d4748; stroke:none;" d="M105 82L105 87L106 87L105 82z"/>
<path style="fill:#296365; stroke:none;" d="M112 82L113 83L112 82z"/>
<path style="fill:#5de1e7; stroke:none;" d="M113 82L114 83L113 82z"/>
<path style="fill:#296365; stroke:none;" d="M114.333 82.6667L114.667 83.3333L114.333 82.6667z"/>
<path style="fill:#3a8e91; stroke:none;" d="M132 82L133 83L132 82z"/>
<path style="fill:#1d4748; stroke:none;" d="M148 82L149 83L148 82M157 82L158 83L157 82z"/>
<path style="fill:#296365; stroke:none;" d="M171 82L172 83L171 82z"/>
<path style="fill:#3a8e91; stroke:none;" d="M198 82L199 83L198 82M218 82L219 83L218 82z"/>
<path style="fill:#1d4748; stroke:none;" d="M219 82L215 89L216 89L221 83L219 82M221 82L221 83L225 83L221 82z"/>
<path style="fill:#296365; stroke:none;" d="M235 82L237 85L237 84L235 82z"/>
<path style="fill:#3a8e91; stroke:none;" d="M244 82L245 83L244 82z"/>
<path style="fill:#1d4748; stroke:none;" d="M268.333 82.6667L268.667 83.3333L268.333 82.6667z"/>
<path style="fill:#296365; stroke:none;" d="M284 82L285 83L284 82M286 82L285 91L286 91L286 82z"/>
<path style="fill:#3a8e91; stroke:none;" d="M314 82L314 85L315 85L314 82z"/>
<path style="fill:#296365; stroke:none;" d="M327 82L328 83L327 82z"/>
<path style="fill:#3a8e91; stroke:none;" d="M335 82L336 83L335 82z"/>
<path style="fill:#1d4748; stroke:none;" d="M345 82L346 83L345 82z"/>
<path style="fill:#3a8e91; stroke:none;" d="M353 82L354 83L353 82M361 82L362 83L361 82z"/>
<path style="fill:#296365; stroke:none;" d="M362 82L362 83L365 83L362 82z"/>
<path style="fill:#3a8e91; stroke:none;" d="M365 82L366 83L365 82z"/>
<path style="fill:#1d4748; stroke:none;" d="M379 82L381 84L381 82L379 82M386 82L387 83L386 82z"/>
<path style="fill:#3a8e91; stroke:none;" d="M408 82L409 83L408 82z"/>
<path style="fill:#1d4748; stroke:none;" d="M409 82L405 89L406 89L411 83L409 82M411 82L411 83L415 83L411 82z"/>
<path style="fill:#296365; stroke:none;" d="M425 82L427 85L427 84L425 82z"/>
<path style="fill:#3a8e91; stroke:none;" d="M434 82L435 83L434 82M449 82L450 83L449 82M482 82L483 83L482 82M25.3333 83.6667L25.6667 84.3333L25.3333 83.6667z"/>
<path style="fill:#1d4748; stroke:none;" d="M33.3333 83.6667L33.6667 84.3333L33.3333 83.6667M71 83L72 84L71 83z"/>
<path style="fill:#3a8e91; stroke:none;" d="M85.3333 83.6667L85.6667 84.3333L85.3333 83.6667z"/>
<path style="fill:#1d4748; stroke:none;" d="M87 83L86 89L87 83z"/>
<path style="fill:#296365; stroke:none;" d="M93 83L94 84L93 83z"/>
<path style="fill:#3a8e91; stroke:none;" d="M103 83L103 92L104 92L103 83z"/>
<path style="fill:#1d4748; stroke:none;" d="M113 83L114 84L113 83z"/>
<path style="fill:#3a8e91; stroke:none;" d="M115 83L116 84L115 83z"/>
<path style="fill:#296365; stroke:none;" d="M131 83L132 84L131 83z"/>
<path style="fill:#3a8e91; stroke:none;" d="M157 83L158 84L157 83z"/>
<path style="fill:#296365; stroke:none;" d="M198 83L199 84L198 83M217 83L215 86L217 83z"/>
<path style="fill:#5de1e7; stroke:none;" d="M235 83L236 84L235 83z"/>
<path style="fill:#1d4748; stroke:none;" d="M244 83L245 84L244 83M258 83L258 86L259 86L258 83z"/>
<path style="fill:#3a8e91; stroke:none;" d="M284.333 83.6667L284.667 84.3333L284.333 83.6667z"/>
<path style="fill:#1d4748; stroke:none;" d="M313 83L314 84L313 83z"/>
<path style="fill:#3a8e91; stroke:none;" d="M327.333 83.6667L327.667 84.3333L327.333 83.6667z"/>
<path style="fill:#1d4748; stroke:none;" d="M329 83L328 89L329 83z"/>
<path style="fill:#296365; stroke:none;" d="M335 83L336 84L335 83M345 83L346 84L345 83M353 83L354 84L353 83z"/>
<path style="fill:#1d4748; stroke:none;" d="M361 83L362 84L361 83M367 83L368 84L367 83z"/>
<path style="fill:#3a8e91; stroke:none;" d="M368 83L369 84L368 83z"/>
<path style="fill:#296365; stroke:none;" d="M387 83L388 84L387 83M407 83L405 86L407 83z"/>
<path style="fill:#5de1e7; stroke:none;" d="M425 83L426 84L425 83z"/>
<path style="fill:#1d4748; stroke:none;" d="M434 83L435 84L434 83z"/>
<path style="fill:#3a8e91; stroke:none;" d="M450 83L451 84L450 83z"/>
<path style="fill:#1d4748; stroke:none;" d="M482 83L483 84L482 83z"/>
<path style="fill:#296365; stroke:none;" d="M71 84L70 90L71 90L71 84z"/>
<path style="fill:#1d4748; stroke:none;" d="M93 84L94 85L93 84z"/>
<path style="fill:#296365; stroke:none;" d="M130 84L131 85L130 84z"/>
<path style="fill:#3a8e91; stroke:none;" d="M147 84L148 85L147 84z"/>
<path style="fill:#1d4748; stroke:none;" d="M190 84L191 85L190 84M192 84L192 88L193 88L192 84M197 84L197 87L198 87L199 84L197 84z"/>
<path style="fill:#030606; stroke:none;" d="M292 84L292 94L293 94L292 84z"/>
<path style="fill:#296365; stroke:none;" d="M313 84L312 90L313 90L313 84z"/>
<path style="fill:#1d4748; stroke:none;" d="M335 84L336 85L335 84z"/>
<path style="fill:#3a8e91; stroke:none;" d="M345 84L346 85L345 84z"/>
<path style="fill:#1d4748; stroke:none;" d="M353 84L354 85L353 84z"/>
<path style="fill:#296365; stroke:none;" d="M378 84L379 85L378 84z"/>
<path style="fill:#1d4748; stroke:none;" d="M452 84L453 85L452 84z"/>
<path style="fill:#3a8e91; stroke:none;" d="M483 84L484 85L483 84M34 85L36 87L34 85z"/>
<path style="fill:#1d4748; stroke:none;" d="M111 85L112 86L111 85z"/>
<path style="fill:#3a8e91; stroke:none;" d="M112 85L113 86L112 85z"/>
<path style="fill:#1d4748; stroke:none;" d="M113 85L114 86L113 85z"/>
<path style="fill:#3a8e91; stroke:none;" d="M129 85L130 86L129 85z"/>
<path style="fill:#1d4748; stroke:none;" d="M147 85L148 86L147 85M156 85L157 86L156 85z"/>
<path style="fill:#296365; stroke:none;" d="M190 85L191 86L190 85z"/>
<path style="fill:#3a8e91; stroke:none;" d="M235.667 85.3333L236.333 85.6667L235.667 85.3333M245 85L246 86L245 85M360 85L361 86L360 85z"/>
<path style="fill:#296365; stroke:none;" d="M362 85L361 87L362 85z"/>
<path style="fill:#3a8e91; stroke:none;" d="M369 85L370 86L369 85z"/>
<path style="fill:#1d4748; stroke:none;" d="M386 85L387 86L386 85z"/>
<path style="fill:#3a8e91; stroke:none;" d="M425.667 85.3333L426.333 85.6667L425.667 85.3333M435 85L436 86L435 85M453 85L454 86L453 85z"/>
<path style="fill:#1d4748; stroke:none;" d="M454 85L455 86L454 85z"/>
<path style="fill:#296365; stroke:none;" d="M456 85L457 86L456 85z"/>
<path style="fill:#1d4748; stroke:none;" d="M457 85L458 86L457 85M465.667 85.3333L466.333 85.6667L465.667 85.3333z"/>
<path style="fill:#296365; stroke:none;" d="M467.667 85.3333L468.333 85.6667L467.667 85.3333z"/>
<path style="fill:#3a8e91; stroke:none;" d="M456 86L456 87L477 89C472.845 83.0746 462.453 86 456 86z"/>
<path style="fill:#296365; stroke:none;" d="M472.667 85.3333L473.333 85.6667L472.667 85.3333z"/>
<path style="fill:#1d4748; stroke:none;" d="M474 85L474 86L478 88L474 85M483 85L484 86L483 85z"/>
<path style="fill:#296365; stroke:none;" d="M34 86L36 89L34 86M111 86L112 87L111 86z"/>
<path style="fill:#3a8e91; stroke:none;" d="M115 86L116 87L115 86z"/>
<path style="fill:#1d4748; stroke:none;" d="M116 86L117 87L116 86z"/>
<path style="fill:#296365; stroke:none;" d="M127 86L128 87L127 86z"/>
<path style="fill:#3a8e91; stroke:none;" d="M156 86L157 87L156 86M190 86L191 87L190 86M199.333 86.6667L199.667 87.3333L199.333 86.6667M214 86L215 87L214 86z"/>
<path style="fill:#1d4748; stroke:none;" d="M224 89L233 87C229.475 85.5247 226.144 85.6927 224 89z"/>
<path style="fill:#296365; stroke:none;" d="M233 86L234 87L233 86z"/>
<path style="fill:#5de1e7; stroke:none;" d="M239 98L237 86C233.2 86.5612 225.53 87.5039 222.943 90.5887C215.757 99.1562 235.184 98.698 239 98z"/>
<path style="fill:#1d4748; stroke:none;" d="M237 86L238 87L237 86M245 86L246 87L245 86z"/>
<path style="fill:#296365; stroke:none;" d="M258 86L258 89L259 89L258 86z"/>
<path style="fill:#3a8e91; stroke:none;" d="M354 86L355 87L354 86z"/>
<path style="fill:#1d4748; stroke:none;" d="M360 86L361 87L360 86z"/>
<path style="fill:#3a8e91; stroke:none;" d="M362 86L361 88L362 86z"/>
<path style="fill:#296365; stroke:none;" d="M369 86L370 87L369 86M377 86L378 87L377 86z"/>
<path style="fill:#3a8e91; stroke:none;" d="M386 86L387 87L386 86M404 86L405 87L404 86z"/>
<path style="fill:#1d4748; stroke:none;" d="M414 89L423 87C419.475 85.5247 416.144 85.6927 414 89z"/>
<path style="fill:#296365; stroke:none;" d="M423 86L424 87L423 86z"/>
<path style="fill:#5de1e7; stroke:none;" d="M429 98L427 86C423.2 86.5612 415.53 87.5038 412.943 90.5887C405.757 99.1562 425.184 98.698 429 98z"/>
<path style="fill:#1d4748; stroke:none;" d="M427 86L428 87L427 86M435 86L436 87L435 86M26 87L27 88L26 87z"/>
<path style="fill:#3a8e91; stroke:none;" d="M94 87L94 90L95 90L94 87M111 87L111 91L112 91L111 87M118.667 87.3333L119.333 87.6667L118.667 87.3333z"/>
<path style="fill:#1d4748; stroke:none;" d="M120 87L120 88L123 88L120 87z"/>
<path style="fill:#296365; stroke:none;" d="M123.667 87.3333L124.333 87.6667L123.667 87.3333z"/>
<path style="fill:#3a8e91; stroke:none;" d="M125 87L126 88L125 87z"/>
<path style="fill:#296365; stroke:none;" d="M146 87L147 88L146 87M215 87L216 88L215 87z"/>
<path style="fill:#1d4748; stroke:none;" d="M222 87L223 88L222 87z"/>
<path style="fill:#296365; stroke:none;" d="M223 87L224 88L223 87M229 87L230 88L229 87z"/>
<path style="fill:#3a8e91; stroke:none;" d="M230 87L231 88L230 87z"/>
<path style="fill:#296365; stroke:none;" d="M237 87L238 88L237 87z"/>
<path style="fill:#3a8e91; stroke:none;" d="M336 87L336 90L337 90L336 87z"/>
<path style="fill:#1d4748; stroke:none;" d="M346 87L347 88L346 87M354 87L355 88L354 87z"/>
<path style="fill:#030606; stroke:none;" d="M360.333 87.6667L360.667 88.3333L360.333 87.6667z"/>
<path style="fill:#1d4748; stroke:none;" d="M362 87L363 88L362 87M369.333 87.6667L369.667 88.3333L369.333 87.6667M385 87L386 88L385 87z"/>
<path style="fill:#296365; stroke:none;" d="M405 87L406 88L405 87z"/>
<path style="fill:#1d4748; stroke:none;" d="M412 87L413 88L412 87z"/>
<path style="fill:#296365; stroke:none;" d="M413 87L414 88L413 87M419 87L420 88L419 87z"/>
<path style="fill:#3a8e91; stroke:none;" d="M420 87L421 88L420 87z"/>
<path style="fill:#296365; stroke:none;" d="M427 87L428 88L427 87M476 87L477 88L476 87z"/>
<path style="fill:#3a8e91; stroke:none;" d="M484 87L485 88L484 87z"/>
<path style="fill:#296365; stroke:none;" d="M26 88L27 89L26 88z"/>
<path style="fill:#1d4748; stroke:none;" d="M34 88L35 89L34 88M70 88L71 89L70 88M104 88L105 89L104 88z"/>
<path style="fill:#296365; stroke:none;" d="M155 88L156 89L155 88z"/>
<path style="fill:#1d4748; stroke:none;" d="M193 88L192 94L195 94L195 93L193 88M198 88L198 92L199 92L200 88L198 88M221 88L222 89L221 88z"/>
<path style="fill:#296365; stroke:none;" d="M225 88L226 89L225 88z"/>
<path style="fill:#3a8e91; stroke:none;" d="M226.667 88.3333L227.333 88.6667L226.667 88.3333M237 88L238 89L237 88M246.333 88.6667L246.667 89.3333L246.333 88.6667z"/>
<path style="fill:#1d4748; stroke:none;" d="M267.333 88.6667L267.667 89.3333L267.333 88.6667M285.333 88.6667L285.667 89.3333L285.333 88.6667M312 88L313 89L312 88z"/>
<path style="fill:#296365; stroke:none;" d="M346 88L347 89L346 88z"/>
<path style="fill:#3a8e91; stroke:none;" d="M359 88L360 89L359 88z"/>
<path style="fill:#5de1e7; stroke:none;" d="M361 88L362 89L361 88z"/>
<path style="fill:#296365; stroke:none;" d="M376 88L377 89L376 88z"/>
<path style="fill:#3a8e91; stroke:none;" d="M385 88L386 89L385 88z"/>
<path style="fill:#1d4748; stroke:none;" d="M411 88L412 89L411 88z"/>
<path style="fill:#296365; stroke:none;" d="M415 88L416 89L415 88z"/>
<path style="fill:#3a8e91; stroke:none;" d="M416.667 88.3333L417.333 88.6667L416.667 88.3333M427 88L428 89L427 88M436.333 88.6667L436.667 89.3333L436.333 88.6667z"/>
<path style="fill:#296365; stroke:none;" d="M484 88L484 93L485 93L484 88z"/>
<path style="fill:#3a8e91; stroke:none;" d="M26.3333 89.6667L26.6667 90.3333L26.3333 89.6667z"/>
<path style="fill:#1d4748; stroke:none;" d="M35 89L36 90L35 89z"/>
<path style="fill:#3a8e91; stroke:none;" d="M71.3333 89.6667L71.6667 90.3333L71.3333 89.6667z"/>
<path style="fill:#296365; stroke:none;" d="M86.3333 89.6667L86.6667 90.3333L86.3333 89.6667z"/>
<path style="fill:#1d4748; stroke:none;" d="M88 89L88 93L89 93L88 89z"/>
<path style="fill:#3a8e91; stroke:none;" d="M145 89L146 90L145 89M155 89L156 90L155 89z"/>
<path style="fill:#1d4748; stroke:none;" d="M191 89L192 90L191 89z"/>
<path style="fill:#3a8e91; stroke:none;" d="M213.333 89.6667L213.667 90.3333L213.333 89.6667z"/>
<path style="fill:#1d4748; stroke:none;" d="M220.333 89.6667L220.667 90.3333L220.333 89.6667z"/>
<path style="fill:#3a8e91; stroke:none;" d="M222 89L223 90L222 89M258 89L258 97L259 97L258 89M293 89L293 93L294 93L293 89M313.333 89.6667L313.667 90.3333L313.333 89.6667z"/>
<path style="fill:#296365; stroke:none;" d="M328.333 89.6667L328.667 90.3333L328.333 89.6667z"/>
<path style="fill:#1d4748; stroke:none;" d="M330 89L330 93L331 93L330 89z"/>
<path style="fill:#3a8e91; stroke:none;" d="M346 89L347 90L346 89M355 89L356 90L355 89z"/>
<path style="fill:#296365; stroke:none;" d="M359 89L361 91L359 89z"/>
<path style="fill:#1d4748; stroke:none;" d="M360 89L362 91L360 89z"/>
<path style="fill:#3a8e91; stroke:none;" d="M361 89L362 90L361 89z"/>
<path style="fill:#1d4748; stroke:none;" d="M384 89L385 90L384 89z"/>
<path style="fill:#3a8e91; stroke:none;" d="M403.333 89.6667L403.667 90.3333L403.333 89.6667z"/>
<path style="fill:#1d4748; stroke:none;" d="M410.333 89.6667L410.667 90.3333L410.333 89.6667z"/>
<path style="fill:#3a8e91; stroke:none;" d="M412 89L413 90L412 89z"/>
<path style="fill:#1d4748; stroke:none;" d="M478 89L478 93L479 93L478 89M483 89L484 90L483 89M70.3333 90.6667L70.6667 91.3333L70.3333 90.6667M93 90L93 101L94 101L93 90z"/>
<path style="fill:#296365; stroke:none;" d="M94.3333 90.6667L94.6667 91.3333L94.3333 90.6667z"/>
<path style="fill:#1d4748; stroke:none;" d="M145 90L146 91L145 90M154 90L155 91L154 90z"/>
<path style="fill:#296365; stroke:none;" d="M191 90L192 91L191 90z"/>
<path style="fill:#3a8e91; stroke:none;" d="M221 90L221 94L222 94L221 90z"/>
<path style="fill:#1d4748; stroke:none;" d="M238 90L239 91L238 90z"/>
<path style="fill:#296365; stroke:none;" d="M246 90L247 91L246 90M267 90L268 91L267 90z"/>
<path style="fill:#3a8e91; stroke:none;" d="M286 90L286 95L287 95L286 90z"/>
<path style="fill:#1d4748; stroke:none;" d="M312.333 90.6667L312.667 91.3333L312.333 90.6667M335 90L335 101L336 101L335 90z"/>
<path style="fill:#296365; stroke:none;" d="M336.333 90.6667L336.667 91.3333L336.333 90.6667z"/>
<path style="fill:#1d4748; stroke:none;" d="M355 90L356 91L355 90M359 90L360 91L359 90z"/>
<path style="fill:#3a8e91; stroke:none;" d="M375 90L376 91L375 90M384 90L385 91L384 90M411 90L411 94L412 94L411 90z"/>
<path style="fill:#1d4748; stroke:none;" d="M428 90L429 91L428 90z"/>
<path style="fill:#296365; stroke:none;" d="M436 90L437 91L436 90z"/>
<path style="fill:#3a8e91; stroke:none;" d="M86 91L86 95L87 95L86 91z"/>
<path style="fill:#1d4748; stroke:none;" d="M105 91L104 93L106 93L105 91z"/>
<path style="fill:#296365; stroke:none;" d="M111 91L112 92L111 91z"/>
<path style="fill:#3a8e91; stroke:none;" d="M154 91L155 92L154 91M191 91L192 92L191 91M200 91L201 92L200 91z"/>
<path style="fill:#296365; stroke:none;" d="M213.333 91.6667L213.667 92.3333L213.333 91.6667z"/>
<path style="fill:#1d4748; stroke:none;" d="M219.333 91.6667L219.667 92.3333L219.333 91.6667z"/>
<path style="fill:#3a8e91; stroke:none;" d="M238 91L238 95L239 95L238 91z"/>
<path style="fill:#1d4748; stroke:none;" d="M246 91L247 92L246 91z"/>
<path style="fill:#3a8e91; stroke:none;" d="M328 91L328 95L329 95L328 91M347 91L348 92L347 91z"/>
<path style="fill:#030606; stroke:none;" d="M359.333 91.6667L359.667 92.3333L359.333 91.6667z"/>
<path style="fill:#3a8e91; stroke:none;" d="M360.333 91.6667L360.667 92.3333L360.333 91.6667z"/>
<path style="fill:#1d4748; stroke:none;" d="M383 91L384 92L383 91z"/>
<path style="fill:#296365; stroke:none;" d="M403.333 91.6667L403.667 92.3333L403.333 91.6667z"/>
<path style="fill:#1d4748; stroke:none;" d="M409.333 91.6667L409.667 92.3333L409.333 91.6667z"/>
<path style="fill:#3a8e91; stroke:none;" d="M428 91L428 95L429 95L428 91z"/>
<path style="fill:#1d4748; stroke:none;" d="M436 91L437 92L436 91M27 92L28 93L27 92z"/>
<path style="fill:#3a8e91; stroke:none;" d="M36.3333 92.6667L36.6667 93.3333L36.3333 92.6667M61 92L61 95L62 95L61 92z"/>
<path style="fill:#1d4748; stroke:none;" d="M111 92L112 93L111 92z"/>
<path style="fill:#3a8e91; stroke:none;" d="M144 92L145 93L144 92z"/>
<path style="fill:#1d4748; stroke:none;" d="M153 92L154 93L153 92z"/>
<path style="fill:#296365; stroke:none;" d="M200 92L201 93L200 92z"/>
<path style="fill:#1d4748; stroke:none;" d="M239 92L240 93L239 92z"/>
<path style="fill:#3a8e91; stroke:none;" d="M303 92L303 95L304 95L303 92M356 92L357 93L356 92M358 92L359 93L358 92M374 92L375 93L374 92z"/>
<path style="fill:#296365; stroke:none;" d="M382 92L383 93L382 92z"/>
<path style="fill:#1d4748; stroke:none;" d="M429 92L430 93L429 92z"/>
<path style="fill:#296365; stroke:none;" d="M448.667 92.3333L449.333 92.6667L448.667 92.3333z"/>
<path style="fill:#3a8e91; stroke:none;" d="M476.333 92.6667L476.667 93.3333L476.333 92.6667z"/>
<path style="fill:#1d4748; stroke:none;" d="M483.333 92.6667L483.667 93.3333L483.333 92.6667z"/>
<path style="fill:#296365; stroke:none;" d="M27 93L28 94L27 93z"/>
<path style="fill:#1d4748; stroke:none;" d="M70.3333 93.6667L70.6667 94.3333L70.3333 93.6667z"/>
<path style="fill:#296365; stroke:none;" d="M88 93L88 96L89 96L88 93M104 93L105 94L104 93z"/>
<path style="fill:#1d4748; stroke:none;" d="M144 93L145 94L144 93M149 93L149 96L150 96L149 93z"/>
<path style="fill:#3a8e91; stroke:none;" d="M153 93L154 94L153 93z"/>
<path style="fill:#1d4748; stroke:none;" d="M199 93L199 98L200 98L201 93L199 93z"/>
<path style="fill:#3a8e91; stroke:none;" d="M213 93L213 96L214 96L213 93z"/>
<path style="fill:#296365; stroke:none;" d="M239 93L239 99L240 99L239 93z"/>
<path style="fill:#1d4748; stroke:none;" d="M312.333 93.6667L312.667 94.3333L312.333 93.6667z"/>
<path style="fill:#296365; stroke:none;" d="M330 93L330 96L331 96L330 93M348 93L349 94L348 93M358 93L359 94L358 93z"/>
<path style="fill:#1d4748; stroke:none;" d="M357 96L361 94L357 96z"/>
<path style="fill:#3a8e91; stroke:none;" d="M370 93L370 99L371 99L370 93M403 93L403 96L404 96L403 93z"/>
<path style="fill:#296365; stroke:none;" d="M429 93L429 99L430 99L429 93z"/>
<path style="fill:#1d4748; stroke:none;" d="M451 93L452 94L451 93z"/>
<path style="fill:#3a8e91; stroke:none;" d="M452 93L453 94L452 93M484.333 93.6667L484.667 94.3333L484.333 93.6667M27.3333 94.6667L27.6667 95.3333L27.3333 94.6667z"/>
<path style="fill:#296365; stroke:none;" d="M36 94L37 95L36 94z"/>
<path style="fill:#3a8e91; stroke:none;" d="M104 94L105 95L104 94M112 94L113 95L112 94M149 94L150 95L149 94z"/>
<path style="fill:#1d4748; stroke:none;" d="M152 94L153 95L152 94z"/>
<path style="fill:#296365; stroke:none;" d="M192 94L193 95L192 94z"/>
<path style="fill:#030606; stroke:none;" d="M193 94L193 97L194 97L193 94z"/>
<path style="fill:#296365; stroke:none;" d="M194 94L193 99L194 94z"/>
<path style="fill:#3a8e91; stroke:none;" d="M247.333 94.6667L247.667 95.3333L247.333 94.6667z"/>
<path style="fill:#296365; stroke:none;" d="M290 94L290 98L291 98L290 94z"/>
<path style="fill:#3a8e91; stroke:none;" d="M357 94L358 95L357 94M359.333 94.6667L359.667 95.3333L359.333 94.6667z"/>
<path style="fill:#296365; stroke:none;" d="M373 94L374 95L373 94M381 94L382 95L381 94z"/>
<path style="fill:#3a8e91; stroke:none;" d="M437.333 94.6667L437.667 95.3333L437.333 94.6667z"/>
<path style="fill:#1d4748; stroke:none;" d="M448 94L449 95L448 94z"/>
<path style="fill:#296365; stroke:none;" d="M454 94L455 95L454 94M476 94L477 95L476 94z"/>
<path style="fill:#1d4748; stroke:none;" d="M477.333 94.6667L477.667 95.3333L477.333 94.6667M482 94L483 95L482 94M36 95L37 96L36 95z"/>
<path style="fill:#296365; stroke:none;" d="M61 95L62 96L61 95M70 95L71 96L70 95z"/>
<path style="fill:#1d4748; stroke:none;" d="M105 95L106 98L107 98L105 95z"/>
<path style="fill:#296365; stroke:none;" d="M112 95L113 96L112 95z"/>
<path style="fill:#3a8e91; stroke:none;" d="M143 95L144 96L143 95M148.333 95.6667L148.667 96.3333L148.333 95.6667M152 95L153 96L152 95M192 95L193 96L192 95M201.333 95.6667L201.667 96.3333L201.333 95.6667z"/>
<path style="fill:#1d4748; stroke:none;" d="M220 95L221 96L220 95z"/>
<path style="fill:#296365; stroke:none;" d="M303 95L304 96L303 95M312 95L313 96L312 95M349 95L350 96L349 95z"/>
<path style="fill:#1d4748; stroke:none;" d="M380 95L379 98L380 95z"/>
<path style="fill:#3a8e91; stroke:none;" d="M381 95L382 96L381 95z"/>
<path style="fill:#1d4748; stroke:none;" d="M410 95L411 96L410 95z"/>
<path style="fill:#3a8e91; stroke:none;" d="M456 95L457 96L456 95M475 95L476 96L475 95z"/>
<path style="fill:#1d4748; stroke:none;" d="M61.3333 96.6667L61.6667 97.3333L61.3333 96.6667z"/>
<path style="fill:#3a8e91; stroke:none;" d="M70.3333 96.6667L70.6667 97.3333L70.3333 96.6667z"/>
<path style="fill:#1d4748; stroke:none;" d="M87 96L89 99L89 96L87 96z"/>
<path style="fill:#296365; stroke:none;" d="M105 96L106 97L105 96M143 96L144 97L143 96z"/>
<path style="fill:#1d4748; stroke:none;" d="M147 96L148 97L147 96M151 96L152 97L151 96z"/>
<path style="fill:#296365; stroke:none;" d="M220 96L220 97L223 98L220 96M247 96L248 97L247 96z"/>
<path style="fill:#1d4748; stroke:none;" d="M267 96L268 97L267 96z"/>
<path style="fill:#3a8e91; stroke:none;" d="M286 96L287 97L286 96z"/>
<path style="fill:#1d4748; stroke:none;" d="M303.333 96.6667L303.667 97.3333L303.333 96.6667z"/>
<path style="fill:#3a8e91; stroke:none;" d="M312.333 96.6667L312.667 97.3333L312.333 96.6667z"/>
<path style="fill:#1d4748; stroke:none;" d="M329 96L331 99L331 96L329 96M359 96L360 97L359 96M372 96L373 97L372 96z"/>
<path style="fill:#296365; stroke:none;" d="M410 96L410 97L413 98L410 96M437 96L438 97L437 96z"/>
<path style="fill:#3a8e91; stroke:none;" d="M449 96L450 97L449 96M458 96L459 97L458 96z"/>
<path style="fill:#296365; stroke:none;" d="M475 96L476 97L475 96z"/>
<path style="fill:#1d4748; stroke:none;" d="M476.333 96.6667L476.667 97.3333L476.333 96.6667M483 96L484 97L483 96z"/>
<path style="fill:#296365; stroke:none;" d="M94 97L95 98L94 97z"/>
<path style="fill:#1d4748; stroke:none;" d="M113 97L114 98L113 97M143 97L144 98L143 97z"/>
<path style="fill:#296365; stroke:none;" d="M148 97L149 98L148 97z"/>
<path style="fill:#3a8e91; stroke:none;" d="M151 97L152 98L151 97z"/>
<path style="fill:#1d4748; stroke:none;" d="M193 97L194 98L193 97z"/>
<path style="fill:#296365; stroke:none;" d="M201.333 97.6667L201.667 98.3333L201.333 97.6667z"/>
<path style="fill:#1d4748; stroke:none;" d="M214 97L215 98L214 97M220 97L222 99L220 97z"/>
<path style="fill:#3a8e91; stroke:none;" d="M221 97L222 98L221 97z"/>
<path style="fill:#1d4748; stroke:none;" d="M247 97L247 100L248 100L247 97z"/>
<path style="fill:#296365; stroke:none;" d="M258.333 97.6667L258.667 98.3333L258.333 97.6667z"/>
<path style="fill:#3a8e91; stroke:none;" d="M267.333 97.6667L267.667 98.3333L267.333 97.6667z"/>
<path style="fill:#1d4748; stroke:none;" d="M287 97L288 98L287 97z"/>
<path style="fill:#296365; stroke:none;" d="M336 97L337 98L336 97z"/>
<path style="fill:#1d4748; stroke:none;" d="M350 97L351 98L350 97M358 97L359 98L358 97z"/>
<path style="fill:#296365; stroke:none;" d="M380 97L381 98L380 97z"/>
<path style="fill:#1d4748; stroke:none;" d="M404 97L405 98L404 97M410 97L412 99L410 97z"/>
<path style="fill:#3a8e91; stroke:none;" d="M411 97L412 98L411 97z"/>
<path style="fill:#1d4748; stroke:none;" d="M437 97L437 100L438 100L437 97z"/>
<path style="fill:#3a8e91; stroke:none;" d="M450 97L451 98L450 97M460 97L461 98L460 97M474 97L475 98L474 97M483 97L484 98L483 97z"/>
<path style="fill:#1d4748; stroke:none;" d="M28.3333 98.6667L28.6667 99.3333L28.3333 98.6667z"/>
<path style="fill:#3a8e91; stroke:none;" d="M37.3333 98.6667L37.6667 99.3333L37.3333 98.6667z"/>
<path style="fill:#296365; stroke:none;" d="M87 98L88 99L87 98z"/>
<path style="fill:#3a8e91; stroke:none;" d="M94.3333 98.6667L94.6667 99.3333L94.3333 98.6667M105 98L106 99L105 98z"/>
<path style="fill:#1d4748; stroke:none;" d="M107.333 98.6667L107.667 99.3333L107.333 98.6667z"/>
<path style="fill:#296365; stroke:none;" d="M114 98L115 99L114 98M146 98L147 99L146 98z"/>
<path style="fill:#1d4748; stroke:none;" d="M148 98L149 99L148 98M150 98L151 99L150 98M200 98L202 101L200 98z"/>
<path style="fill:#296365; stroke:none;" d="M214 98L215 99L214 98z"/>
<path style="fill:#3a8e91; stroke:none;" d="M222 98L223 99L222 98z"/>
<path style="fill:#1d4748; stroke:none;" d="M223 98C224.127 100.006 224.873 100.006 226 98L223 98z"/>
<path style="fill:#030606; stroke:none;" d="M224 98L225 99L224 98z"/>
<path style="fill:#296365; stroke:none;" d="M226 98L226 99L229 99L226 98z"/>
<path style="fill:#3a8e91; stroke:none;" d="M229.667 98.3333L230.333 98.6667L229.667 98.3333M236 98L236 99L239 99L236 98z"/>
<path style="fill:#1d4748; stroke:none;" d="M240 98L241 99L240 98z"/>
<path style="fill:#3a8e91; stroke:none;" d="M287 98L288 99L287 98M290 98L291 99L290 98z"/>
<path style="fill:#296365; stroke:none;" d="M329 98L330 99L329 98z"/>
<path style="fill:#3a8e91; stroke:none;" d="M336.333 98.6667L336.667 99.3333L336.333 98.6667M350 98L351 99L350 98z"/>
<path style="fill:#1d4748; stroke:none;" d="M378 98L379 99L378 98z"/>
<path style="fill:#3a8e91; stroke:none;" d="M380 98L381 99L380 98z"/>
<path style="fill:#296365; stroke:none;" d="M404 98L405 99L404 98z"/>
<path style="fill:#3a8e91; stroke:none;" d="M412 98L413 99L412 98z"/>
<path style="fill:#1d4748; stroke:none;" d="M413 98C414.127 100.006 414.873 100.006 416 98L413 98z"/>
<path style="fill:#030606; stroke:none;" d="M414 98L415 99L414 98z"/>
<path style="fill:#296365; stroke:none;" d="M416 98L416 99L419 99L416 98z"/>
<path style="fill:#3a8e91; stroke:none;" d="M419.667 98.3333L420.333 98.6667L419.667 98.3333M426 98L426 99L429 99L426 98z"/>
<path style="fill:#1d4748; stroke:none;" d="M430 98L431 99L430 98M450 98L451 99L450 98M459 98L460 99L459 98M462 98L461 100L463 100L462 98z"/>
<path style="fill:#3a8e91; stroke:none;" d="M463 98L464 99L463 98z"/>
<path style="fill:#296365; stroke:none;" d="M473 98L474 99L473 98z"/>
<path style="fill:#1d4748; stroke:none;" d="M475 98L476 99L475 98z"/>
<path style="fill:#3a8e91; stroke:none;" d="M87 99L88 100L87 99z"/>
<path style="fill:#1d4748; stroke:none;" d="M115 99L116 100L115 99M145 99L146 100L145 99z"/>
<path style="fill:#3a8e91; stroke:none;" d="M150 99L151 100L150 99M193 99L194 100L193 99z"/>
<path style="fill:#1d4748; stroke:none;" d="M194 99L194 101L196 99L194 99M229 100L229 101L240 100L229 100M258 99L259 100L258 99z"/>
<path style="fill:#3a8e91; stroke:none;" d="M329 99L330 100L329 99z"/>
<path style="fill:#1d4748; stroke:none;" d="M351 99L352 100L351 99M370 99L371 100L370 99z"/>
<path style="fill:#296365; stroke:none;" d="M379 99L380 100L379 99z"/>
<path style="fill:#1d4748; stroke:none;" d="M419 100L419 101L430 100L419 100z"/>
<path style="fill:#3a8e91; stroke:none;" d="M449 99L450 100L449 99z"/>
<path style="fill:#1d4748; stroke:none;" d="M451 99L451 100L455 102L455 101L451 99M463 100L463 101L468 101L463 100z"/>
<path style="fill:#296365; stroke:none;" d="M467 99L467 100L470 100L467 99z"/>
<path style="fill:#3a8e91; stroke:none;" d="M470.667 99.3333L471.333 99.6667L470.667 99.3333z"/>
<path style="fill:#1d4748; stroke:none;" d="M472 99L472 101L474 99L472 99M480 99L479 102L482 100L480 99z"/>
<path style="fill:#3a8e91; stroke:none;" d="M482 99L483 100L482 99z"/>
<path style="fill:#296365; stroke:none;" d="M28 100L29 101L28 100M37 100L38 101L37 100z"/>
<path style="fill:#3a8e91; stroke:none;" d="M60.3333 100.667L60.6667 101.333L60.3333 100.667z"/>
<path style="fill:#1d4748; stroke:none;" d="M69 100L70 101L69 100z"/>
<path style="fill:#296365; stroke:none;" d="M92 100L93 101L92 100z"/>
<path style="fill:#3a8e91; stroke:none;" d="M106 100L107 101L106 100z"/>
<path style="fill:#296365; stroke:none;" d="M108 100L109 101L108 100M117 100L118 101L117 100z"/>
<path style="fill:#3a8e91; stroke:none;" d="M118 100L119 101L118 100M142 100L143 101L142 100M145 100L146 101L145 100M148.667 100.333L149.333 100.667L148.667 100.333z"/>
<path style="fill:#296365; stroke:none;" d="M195.333 100.667L195.667 101.333L195.333 100.667M200 100L201 101L200 100M215 100L216 101L215 100M247 100L248 101L247 100z"/>
<path style="fill:#3a8e91; stroke:none;" d="M302.333 100.667L302.667 101.333L302.333 100.667z"/>
<path style="fill:#1d4748; stroke:none;" d="M311 100L312 101L311 100z"/>
<path style="fill:#296365; stroke:none;" d="M334 100L335 101L334 100z"/>
<path style="fill:#3a8e91; stroke:none;" d="M351 100L352 101L351 100z"/>
<path style="fill:#1d4748; stroke:none;" d="M371 100L370 102L371 100M377 100L373 106L377 100z"/>
<path style="fill:#3a8e91; stroke:none;" d="M379 100L380 101L379 100z"/>
<path style="fill:#296365; stroke:none;" d="M405 100L406 101L405 100M437 100L438 101L437 100M450 100L451 101L450 100z"/>
<path style="fill:#3a8e91; stroke:none;" d="M28.3333 101.667L28.6667 102.333L28.3333 101.667z"/>
<path style="fill:#1d4748; stroke:none;" d="M37.3333 101.667L37.6667 102.333L37.3333 101.667z"/>
<path style="fill:#296365; stroke:none;" d="M69 101L70 102L69 101z"/>
<path style="fill:#3a8e91; stroke:none;" d="M87 101L87 105L88 105L87 101z"/>
<path style="fill:#1d4748; stroke:none;" d="M107 101L107 102L111 106L112 106L107 101M116.667 101.333L117.333 101.667L116.667 101.333M118 102L118 103L126 104L126 103L124 101L118 102z"/>
<path style="fill:#3a8e91; stroke:none;" d="M124.333 101.667L124.667 102.333L124.333 101.667M129 101L130 102L129 101M144 101L145 102L144 101M194 101L195 102L194 101z"/>
<path style="fill:#1d4748; stroke:none;" d="M199 101L200 102L199 101z"/>
<path style="fill:#3a8e91; stroke:none;" d="M200 101L201 102L200 101z"/>
<path style="fill:#1d4748; stroke:none;" d="M216 101L217 102L216 101z"/>
<path style="fill:#3a8e91; stroke:none;" d="M247 101L248 102L247 101M259 101L260 102L259 101z"/>
<path style="fill:#1d4748; stroke:none;" d="M260 101L261 102L260 101M266 101L267 102L266 101z"/>
<path style="fill:#296365; stroke:none;" d="M311 101L312 102L311 101z"/>
<path style="fill:#3a8e91; stroke:none;" d="M329 101L329 105L330 105L329 101z"/>
<path style="fill:#1d4748; stroke:none;" d="M355.667 101.333L356.333 101.667L355.667 101.333M363 101L364 107L365 107L363 101M378 101L379 102L378 101M406 101L407 102L406 101z"/>
<path style="fill:#3a8e91; stroke:none;" d="M437 101L438 102L437 101M451 101L452 102L451 101z"/>
<path style="fill:#296365; stroke:none;" d="M60 102L60 104L62 104L60 102z"/>
<path style="fill:#1d4748; stroke:none;" d="M68 102L69 103L68 102z"/>
<path style="fill:#3a8e91; stroke:none;" d="M69.3333 102.667L69.6667 103.333L69.3333 102.667z"/>
<path style="fill:#296365; stroke:none;" d="M91 102L92 103L91 102z"/>
<path style="fill:#030606; stroke:none;" d="M108 102L109 103L108 102z"/>
<path style="fill:#296365; stroke:none;" d="M127 102L128 103L127 102z"/>
<path style="fill:#3a8e91; stroke:none;" d="M130.333 102.667L130.667 103.333L130.333 102.667M195.333 102.667L195.667 103.333L195.333 102.667z"/>
<path style="fill:#296365; stroke:none;" d="M199 102L200 103L199 102z"/>
<path style="fill:#1d4748; stroke:none;" d="M219 102L220 103L219 102z"/>
<path style="fill:#3a8e91; stroke:none;" d="M262 102L263 103L262 102z"/>
<path style="fill:#1d4748; stroke:none;" d="M263 102L264 103L263 102z"/>
<path style="fill:#296365; stroke:none;" d="M266 102L267 103L266 102M302 102L302 104L304 104L302 102z"/>
<path style="fill:#1d4748; stroke:none;" d="M310 102L311 103L310 102z"/>
<path style="fill:#3a8e91; stroke:none;" d="M311.333 102.667L311.667 103.333L311.333 102.667z"/>
<path style="fill:#296365; stroke:none;" d="M333 102L334 103L333 102z"/>
<path style="fill:#1d4748; stroke:none;" d="M352 102L353 103L352 102z"/>
<path style="fill:#296365; stroke:none;" d="M355 102L356 103L355 102z"/>
<path style="fill:#3a8e91; stroke:none;" d="M362 102L363 103L362 102z"/>
<path style="fill:#1d4748; stroke:none;" d="M366 102L367 103L366 102z"/>
<path style="fill:#3a8e91; stroke:none;" d="M378 102L379 103L378 102z"/>
<path style="fill:#1d4748; stroke:none;" d="M409 102L410 103L409 102z"/>
<path style="fill:#296365; stroke:none;" d="M453 102L454 103L453 102z"/>
<path style="fill:#1d4748; stroke:none;" d="M455.667 102.333L456.333 102.667L455.667 102.333z"/>
<path style="fill:#296365; stroke:none;" d="M478 102L479 103L478 102z"/>
<path style="fill:#3a8e91; stroke:none;" d="M480 102L481 103L480 102z"/>
<path style="fill:#296365; stroke:none;" d="M68 103L65 104L65 105L68 103z"/>
<path style="fill:#3a8e91; stroke:none;" d="M91 103L92 104L91 103z"/>
<path style="fill:#030606; stroke:none;" d="M109 103L111 105L109 103z"/>
<path style="fill:#1d4748; stroke:none;" d="M199 103L200 104L199 103M218 103L219 104L218 103M220 105L224 104L220 105z"/>
<path style="fill:#3a8e91; stroke:none;" d="M246 103L247 104L246 103M265 103L266 104L265 103z"/>
<path style="fill:#296365; stroke:none;" d="M310 103L307 104L307 105L310 103z"/>
<path style="fill:#3a8e91; stroke:none;" d="M333 103L334 104L333 103M352 103L353 104L352 103z"/>
<path style="fill:#1d4748; stroke:none;" d="M354 103L355 104L354 103z"/>
<path style="fill:#3a8e91; stroke:none;" d="M361 103L362 104L361 103z"/>
<path style="fill:#296365; stroke:none;" d="M366.333 103.667L366.667 104.333L366.333 103.667M377 103L378 104L377 103z"/>
<path style="fill:#1d4748; stroke:none;" d="M408 103L409 104L408 103M410 105L414 104L410 105z"/>
<path style="fill:#3a8e91; stroke:none;" d="M436 103L437 104L436 103z"/>
<path style="fill:#296365; stroke:none;" d="M455 103L456 104L455 103z"/>
<path style="fill:#1d4748; stroke:none;" d="M457 103L459 105L459 103L457 103M476 103L478 105L478 103L476 103M29 104L30 105L29 104z"/>
<path style="fill:#3a8e91; stroke:none;" d="M61 104L62 105L61 104M63.6667 104.333L64.3333 104.667L63.6667 104.333M109 104L110 105L109 104z"/>
<path style="fill:#296365; stroke:none;" d="M112 104L113 105L112 104z"/>
<path style="fill:#1d4748; stroke:none;" d="M129 104L130 105L129 104z"/>
<path style="fill:#3a8e91; stroke:none;" d="M219 104L220 105L219 104z"/>
<path style="fill:#030606; stroke:none;" d="M221.667 104.333L222.333 104.667L221.667 104.333z"/>
<path style="fill:#296365; stroke:none;" d="M223.333 104.667L223.667 105.333L223.333 104.667z"/>
<path style="fill:#3a8e91; stroke:none;" d="M224 104L224 105L228 105L224 104z"/>
<path style="fill:#296365; stroke:none;" d="M228 104L229 107L230 107L228 104M245 104L246 105L245 104z"/>
<path style="fill:#3a8e91; stroke:none;" d="M303 104L304 105L303 104M305.667 104.333L306.333 104.667L305.667 104.333z"/>
<path style="fill:#296365; stroke:none;" d="M353 104L354 105L353 104M360 104L361 105L360 104z"/>
<path style="fill:#1d4748; stroke:none;" d="M376 104L377 105L376 104z"/>
<path style="fill:#3a8e91; stroke:none;" d="M409 104L410 105L409 104z"/>
<path style="fill:#030606; stroke:none;" d="M411.667 104.333L412.333 104.667L411.667 104.333z"/>
<path style="fill:#296365; stroke:none;" d="M413.333 104.667L413.667 105.333L413.333 104.667z"/>
<path style="fill:#3a8e91; stroke:none;" d="M414 104L414 105L418 105L414 104z"/>
<path style="fill:#296365; stroke:none;" d="M418 104L419 107L420 107L418 104M435 104L436 105L435 104z"/>
<path style="fill:#3a8e91; stroke:none;" d="M457 104L458 105L457 104z"/>
<path style="fill:#1d4748; stroke:none;" d="M460.667 104.333L461.333 104.667L460.667 104.333M474 104L476 106L476 104L474 104z"/>
<path style="fill:#296365; stroke:none;" d="M29 105L30 106L29 105z"/>
<path style="fill:#3a8e91; stroke:none;" d="M34 105L35 106L34 105M68 105L69 106L68 105z"/>
<path style="fill:#296365; stroke:none;" d="M90 105L91 106L90 105M113 105L114 106L113 105z"/>
<path style="fill:#1d4748; stroke:none;" d="M114.333 105.667L114.667 106.333L114.333 105.667z"/>
<path style="fill:#3a8e91; stroke:none;" d="M129 105L130 106L129 105M222 105L223 106L222 105z"/>
<path style="fill:#1d4748; stroke:none;" d="M224 105L225 106L224 105z"/>
<path style="fill:#030606; stroke:none;" d="M225.667 105.333L226.333 105.667L225.667 105.333z"/>
<path style="fill:#1d4748; stroke:none;" d="M227.667 105.333L228.333 105.667L227.667 105.333M230 105L230 107L232 107L232 105L230 105z"/>
<path style="fill:#3a8e91; stroke:none;" d="M244 105L245 106L244 105M310 105L311 106L310 105z"/>
<path style="fill:#296365; stroke:none;" d="M332 105L333 106L332 105z"/>
<path style="fill:#3a8e91; stroke:none;" d="M354 105L355 106L354 105z"/>
<path style="fill:#296365; stroke:none;" d="M359 105L360 106L359 105z"/>
<path style="fill:#1d4748; stroke:none;" d="M368.667 105.333L369.333 105.667L368.667 105.333z"/>
<path style="fill:#3a8e91; stroke:none;" d="M376 105L377 106L376 105M412 105L413 106L412 105z"/>
<path style="fill:#1d4748; stroke:none;" d="M414 105L415 106L414 105z"/>
<path style="fill:#030606; stroke:none;" d="M415.667 105.333L416.333 105.667L415.667 105.333z"/>
<path style="fill:#1d4748; stroke:none;" d="M417.667 105.333L418.333 105.667L417.667 105.333M420 105L420 107L422 107L422 105L420 105z"/>
<path style="fill:#3a8e91; stroke:none;" d="M434 105L435 106L434 105M459 105L460 106L459 105z"/>
<path style="fill:#296365; stroke:none;" d="M460 105L461 106L460 105z"/>
<path style="fill:#3a8e91; stroke:none;" d="M476 105L477 106L476 105z"/>
<path style="fill:#1d4748; stroke:none;" d="M37 106L38 107L37 106M88 106L89 107L88 106z"/>
<path style="fill:#296365; stroke:none;" d="M112 106L113 107L112 106M114 108L117 107L114 108z"/>
<path style="fill:#1d4748; stroke:none;" d="M117 106L119 109L117 106z"/>
<path style="fill:#296365; stroke:none;" d="M127 106L128 107L127 106z"/>
<path style="fill:#3a8e91; stroke:none;" d="M128 106L129 107L128 106M196 106L197 107L196 106M227.667 106.333L228.333 106.667L227.667 106.333z"/>
<path style="fill:#1d4748; stroke:none;" d="M241 106L242 107L241 106z"/>
<path style="fill:#3a8e91; stroke:none;" d="M242 106L243 107L242 106z"/>
<path style="fill:#1d4748; stroke:none;" d="M330 106L331 107L330 106z"/>
<path style="fill:#3a8e91; stroke:none;" d="M355 106L356 107L355 106z"/>
<path style="fill:#296365; stroke:none;" d="M358 106L359 107L358 106z"/>
<path style="fill:#1d4748; stroke:none;" d="M370 110L375 107L370 110z"/>
<path style="fill:#3a8e91; stroke:none;" d="M375 106L376 107L375 106M417.667 106.333L418.333 106.667L417.667 106.333z"/>
<path style="fill:#1d4748; stroke:none;" d="M431 106L432 107L431 106z"/>
<path style="fill:#3a8e91; stroke:none;" d="M432 106L433 107L432 106M463 106L464 107L463 106z"/>
<path style="fill:#1d4748; stroke:none;" d="M464 106L465 107L464 106M472 106L473 107L472 106z"/>
<path style="fill:#296365; stroke:none;" d="M473 106L474 107L473 106z"/>
<path style="fill:#3a8e91; stroke:none;" d="M474 106L475 107L474 106z"/>
<path style="fill:#1d4748; stroke:none;" d="M30 107L31 108L30 107z"/>
<path style="fill:#3a8e91; stroke:none;" d="M33 107L34 108L33 107z"/>
<path style="fill:#030606; stroke:none;" d="M115.667 107.333L116.333 107.667L115.667 107.333z"/>
<path style="fill:#296365; stroke:none;" d="M118 107L118 108L126 108L118 107z"/>
<path style="fill:#1d4748; stroke:none;" d="M199 107L200 108L199 107z"/>
<path style="fill:#3a8e91; stroke:none;" d="M357 107L358 108L357 107M362.333 107.667L362.667 108.333L362.333 107.667z"/>
<path style="fill:#1d4748; stroke:none;" d="M363 107L364 108L363 107z"/>
<path style="fill:#296365; stroke:none;" d="M374 107L375 108L374 107z"/>
<path style="fill:#3a8e91; stroke:none;" d="M468 107L469 108L468 107z"/>
<path style="fill:#1d4748; stroke:none;" d="M31 108L32 109L31 108z"/>
<path style="fill:#296365; stroke:none;" d="M32 108L33 109L32 108z"/>
<path style="fill:#3a8e91; stroke:none;" d="M116 108L117 109L116 108z"/>
<path style="fill:#296365; stroke:none;" d="M117 108L118 109L117 108z"/>
<path style="fill:#030606; stroke:none;" d="M119 108L119 109L123 109L119 108z"/>
<path style="fill:#1d4748; stroke:none;" d="M123 108L124 109L123 108z"/>
<path style="fill:#3a8e91; stroke:none;" d="M124 108L125 109L124 108M197 108L198 109L197 108z"/>
<path style="fill:#296365; stroke:none;" d="M199 108L200 109L199 108z"/>
<path style="fill:#1d4748; stroke:none;" d="M364 108L365 109L364 108z"/>
<path style="fill:#296365; stroke:none;" d="M372 108L372 110L374 108L372 108M363 109L363 110L366 111L363 109z"/>
<path style="fill:#1d4748; stroke:none;" d="M368.333 109.667L368.667 110.333L368.333 109.667z"/>
<path style="fill:#296365; stroke:none;" d="M369.333 109.667L369.667 110.333L369.333 109.667z"/>
<path style="fill:#3a8e91; stroke:none;" d="M371 109L368 111L368 112L371 109M364 110L365 111L364 110z"/>
<path style="fill:#1d4748; stroke:none;" d="M366 110L367 111L366 110z"/>
<path style="fill:#296365; stroke:none;" d="M367.333 110.667L367.667 111.333L367.333 110.667z"/>
<path style="fill:#3a8e91; stroke:none;" d="M366 111L367 112L366 111z"/>
</svg>
