<?xml version="1.0" standalone="yes"?>
<svg xmlns="http://www.w3.org/2000/svg" width="58" height="58">
<path style="fill:#020101; stroke:none;" d="M0 0L0 58L58 58L58 0L0 0z"/>
<path style="fill:#620808; stroke:none;" d="M37 5L38 6L37 5z"/>
<path style="fill:#a20e0e; stroke:none;" d="M38 5L39 6L38 5z"/>
<path style="fill:#d01212; stroke:none;" d="M39 5L40 6L39 5z"/>
<path style="fill:#fe1717; stroke:none;" d="M29 22C26.6284 17.9794 23.0649 8.76161 17.1435 9.58179C13.3256 10.1106 12.6832 16.0463 12.0108 19C9.80025 28.7104 4.45767 37.9842 4 48L5 48L9 40L10 40L8 46C15.7202 40.9429 17.8971 26.5405 19 18L20 18C25.5831 33.3636 36.0207 28.5021 38 14L42 16L45 27L44 27L44 25L43 25L47 44L48 44L48 41L49 41L52 54L53 36L52 36L52 39L51 39L52 32L51 32L51 34L50 34L45 11L43 12L43 11L42 5C33.564 6.85671 32.0338 14.7035 29 22z"/>
<path style="fill:#d01212; stroke:none;" d="M35 6L36 7L35 6z"/>
<path style="fill:#620808; stroke:none;" d="M42 6L43 7L42 6z"/>
<path style="fill:#d01212; stroke:none;" d="M41 7L42 8L41 7z"/>
<path style="fill:#a20e0e; stroke:none;" d="M18 8L19 9L18 8z"/>
<path style="fill:#620808; stroke:none;" d="M19 8L20 9L19 8z"/>
<path style="fill:#a20e0e; stroke:none;" d="M34 8L35 9L34 8M37.3333 8.66667L37.6667 9.33333L37.3333 8.66667z"/>
<path style="fill:#620808; stroke:none;" d="M43 8L44 9L43 8z"/>
<path style="fill:#a20e0e; stroke:none;" d="M15 9L16 10L15 9z"/>
<path style="fill:#620808; stroke:none;" d="M20 9L21 10L20 9z"/>
<path style="fill:#a20e0e; stroke:none;" d="M35 9L36 10L35 9z"/>
<path style="fill:#d01212; stroke:none;" d="M13.3333 10.6667L13.6667 11.3333L13.3333 10.6667z"/>
<path style="fill:#620808; stroke:none;" d="M21 10L22 11L21 10M33 10L34 11L33 10z"/>
<path style="fill:#d01212; stroke:none;" d="M43 10L44 11L43 10z"/>
<path style="fill:#620808; stroke:none;" d="M44 10L45 11L44 10M22 11L23 12L22 11z"/>
<path style="fill:#a20e0e; stroke:none;" d="M33 11L34 12L33 11M43 11L44 12L43 11z"/>
<path style="fill:#620808; stroke:none;" d="M12.3333 12.6667L12.6667 13.3333L12.3333 12.6667z"/>
<path style="fill:#a20e0e; stroke:none;" d="M13 12L14 13L13 12z"/>
<path style="fill:#d01212; stroke:none;" d="M44 12L44 14L46 14L44 12z"/>
<path style="fill:#620808; stroke:none;" d="M45 12L46 13L45 12z"/>
<path style="fill:#d01212; stroke:none;" d="M13 13L14 14L13 13z"/>
<path style="fill:#620808; stroke:none;" d="M32 13L33 14L32 13z"/>
<path style="fill:#a20e0e; stroke:none;" d="M12 14L13 15L12 14M24 14L25 15L24 14z"/>
<path style="fill:#d01212; stroke:none;" d="M32 14L33 15L32 14M38 14L37 17L38 14M40 14L41 15L40 14M12.3333 15.6667L12.6667 16.3333L12.3333 15.6667z"/>
<path style="fill:#620808; stroke:none;" d="M25 15L26 16L25 15M39 15L40 16L39 15z"/>
<path style="fill:#a20e0e; stroke:none;" d="M46 15L47 16L46 15z"/>
<path style="fill:#620808; stroke:none;" d="M31 16L32 17L31 16z"/>
<path style="fill:#a20e0e; stroke:none;" d="M38 16L39 17L38 16z"/>
<path style="fill:#d01212; stroke:none;" d="M40.6667 16.3333L41.3333 16.6667L40.6667 16.3333z"/>
<path style="fill:#620808; stroke:none;" d="M26 17L27 18L26 17M38.3333 17.6667L38.6667 18.3333L38.3333 17.6667M47 17L48 18L47 17z"/>
<path style="fill:#d01212; stroke:none;" d="M19 18L20 19L19 18z"/>
<path style="fill:#620808; stroke:none;" d="M30 18L31 19L30 18z"/>
<path style="fill:#a20e0e; stroke:none;" d="M37 18L38 19L37 18z"/>
<path style="fill:#d01212; stroke:none;" d="M42 18L43 19L42 18z"/>
<path style="fill:#620808; stroke:none;" d="M11.3333 19.6667L11.6667 20.3333L11.3333 19.6667M27 19L28 20L27 19M41 19L42 20L41 19z"/>
<path style="fill:#d01212; stroke:none;" d="M20 20L22 22L20 20z"/>
<path style="fill:#620808; stroke:none;" d="M29 20L30 21L29 20z"/>
<path style="fill:#a20e0e; stroke:none;" d="M36 20L37 21L36 20M48 20L49 21L48 20z"/>
<path style="fill:#d01212; stroke:none;" d="M11 21L12 22L11 21M18 21L19 22L18 21z"/>
<path style="fill:#620808; stroke:none;" d="M20 21L21 22L20 21M28 21L29 22L28 21z"/>
<path style="fill:#d01212; stroke:none;" d="M42 21L43 22L42 21z"/>
<path style="fill:#a20e0e; stroke:none;" d="M18 22L19 23L18 22M21.3333 22.6667L21.6667 23.3333L21.3333 22.6667z"/>
<path style="fill:#620808; stroke:none;" d="M35 22L36 23L35 22M42 22L43 23L42 22M18 23L19 24L18 23M22 23L23 24L22 23z"/>
<path style="fill:#a20e0e; stroke:none;" d="M49 23L50 24L49 23z"/>
<path style="fill:#620808; stroke:none;" d="M10 24L11 25L10 24z"/>
<path style="fill:#d01212; stroke:none;" d="M22.3333 24.6667L22.6667 25.3333L22.3333 24.6667z"/>
<path style="fill:#a20e0e; stroke:none;" d="M43 24L44 25L43 24z"/>
<path style="fill:#d01212; stroke:none;" d="M44 24L44 27L45 27L44 24M10 25L11 26L10 25z"/>
<path style="fill:#a20e0e; stroke:none;" d="M23.3333 25.6667L23.6667 26.3333L23.3333 25.6667M33 25L34 26L33 25z"/>
<path style="fill:#d01212; stroke:none;" d="M17 26L18 27L17 26z"/>
<path style="fill:#620808; stroke:none;" d="M50 26L51 27L50 26M9 27L10 28L9 27M17 27L18 28L17 27M23.3333 27.6667L23.6667 28.3333L23.3333 27.6667M32.6667 27.3333L33.3333 27.6667L32.6667 27.3333z"/>
<path style="fill:#a20e0e; stroke:none;" d="M43 27L44 28L43 27z"/>
<path style="fill:#d01212; stroke:none;" d="M45 27L46 36L47 36L45 27M50 27L51 28L50 27M9 28L10 29L9 28z"/>
<path style="fill:#a20e0e; stroke:none;" d="M24 28L25 29L24 28z"/>
<path style="fill:#d01212; stroke:none;" d="M25 28L26 29L25 28z"/>
<path style="fill:#a20e0e; stroke:none;" d="M31 28L31 30L33 28L31 28z"/>
<path style="fill:#620808; stroke:none;" d="M43 28L44 29L43 28z"/>
<path style="fill:#d01212; stroke:none;" d="M49.3333 28.6667L49.6667 29.3333L49.3333 28.6667z"/>
<path style="fill:#620808; stroke:none;" d="M25 29L25 30L29 31L29 30L25 29z"/>
<path style="fill:#d01212; stroke:none;" d="M27 29L28 30L27 29M29 29L29 31L31 29L29 29z"/>
<path style="fill:#620808; stroke:none;" d="M8 30L9 31L8 30z"/>
<path style="fill:#d01212; stroke:none;" d="M16 30L17 31L16 30z"/>
<path style="fill:#620808; stroke:none;" d="M30 30L31 31L30 30z"/>
<path style="fill:#d01212; stroke:none;" d="M50 30L50 34L51 34L50 30z"/>
<path style="fill:#620808; stroke:none;" d="M51 30L52 31L51 30M16 31L17 32L16 31z"/>
<path style="fill:#a20e0e; stroke:none;" d="M44 31L45 32L44 31M51 31L52 32L51 31z"/>
<path style="fill:#620808; stroke:none;" d="M44 32L45 33L44 32z"/>
<path style="fill:#a20e0e; stroke:none;" d="M7 33L8 34L7 33z"/>
<path style="fill:#d01212; stroke:none;" d="M15 33L16 34L15 33z"/>
<path style="fill:#620808; stroke:none;" d="M15 34L16 35L15 34z"/>
<path style="fill:#d01212; stroke:none;" d="M51 34L51 37L52 37L51 34z"/>
<path style="fill:#620808; stroke:none;" d="M52 34L53 35L52 34M6 35L7 36L6 35z"/>
<path style="fill:#a20e0e; stroke:none;" d="M52 35L53 36L52 35z"/>
<path style="fill:#d01212; stroke:none;" d="M6 36L7 37L6 36z"/>
<path style="fill:#a20e0e; stroke:none;" d="M14 36L15 37L14 36M45 36L46 37L45 36M47 36L47 41L48 41L47 36z"/>
<path style="fill:#620808; stroke:none;" d="M45 37L46 38L45 37z"/>
<path style="fill:#a20e0e; stroke:none;" d="M51 37L52 38L51 37z"/>
<path style="fill:#620808; stroke:none;" d="M5 38L6 39L5 38z"/>
<path style="fill:#a20e0e; stroke:none;" d="M13 38L14 39L13 38z"/>
<path style="fill:#d01212; stroke:none;" d="M51 38L52 39L51 38z"/>
<path style="fill:#620808; stroke:none;" d="M53 38L54 39L53 38z"/>
<path style="fill:#d01212; stroke:none;" d="M5 39L6 40L5 39M52 39L52 41L54 41L52 39z"/>
<path style="fill:#a20e0e; stroke:none;" d="M53 39L54 40L53 39M9 40L8 42L9 40M12 40L13 41L12 40z"/>
<path style="fill:#620808; stroke:none;" d="M4 41L5 42L4 41M9 41L10 42L9 41z"/>
<path style="fill:#a20e0e; stroke:none;" d="M46 41L47 42L46 41z"/>
<path style="fill:#d01212; stroke:none;" d="M48 41L49 42L48 41z"/>
<path style="fill:#a20e0e; stroke:none;" d="M52 41L52 44L53 44L52 41z"/>
<path style="fill:#fe1717; stroke:none;" d="M53 41L53 44L54 44L53 41z"/>
<path style="fill:#d01212; stroke:none;" d="M4 42L5 43L4 42z"/>
<path style="fill:#020101; stroke:none;" d="M8 42L9 43L8 42z"/>
<path style="fill:#a20e0e; stroke:none;" d="M11 42L12 43L11 42z"/>
<path style="fill:#620808; stroke:none;" d="M46 42L47 43L46 42z"/>
<path style="fill:#a20e0e; stroke:none;" d="M48 42L49 43L48 42z"/>
<path style="fill:#620808; stroke:none;" d="M7.66667 43.3333L8.33333 43.6667L7.66667 43.3333M48 43L49 44L48 43M54 43L54 46L55 46L54 43z"/>
<path style="fill:#d01212; stroke:none;" d="M8 44L9 45L8 44z"/>
<path style="fill:#a20e0e; stroke:none;" d="M10 44L11 45L10 44z"/>
<path style="fill:#d01212; stroke:none;" d="M47 44L48 45L47 44z"/>
<path style="fill:#a20e0e; stroke:none;" d="M48 44L48 47L49 47L48 44z"/>
<path style="fill:#d01212; stroke:none;" d="M52.6667 44.3333L53.3333 44.6667L52.6667 44.3333z"/>
<path style="fill:#620808; stroke:none;" d="M3 45L3 48L4 48L3 45M6 45L7 46L6 45M47 45L48 46L47 45z"/>
<path style="fill:#a20e0e; stroke:none;" d="M53 45L53 47L55 47L53 45M5 46L6 47L5 46z"/>
<path style="fill:#620808; stroke:none;" d="M8 46L9 47L8 46z"/>
<path style="fill:#a20e0e; stroke:none;" d="M9 46L10 47L9 46z"/>
<path style="fill:#620808; stroke:none;" d="M48 47L49 48L48 47z"/>
<path style="fill:#d01212; stroke:none;" d="M49.3333 47.6667L49.6667 48.3333L49.3333 47.6667M52 47L53 48L52 47z"/>
<path style="fill:#a20e0e; stroke:none;" d="M52 48L53 49L52 48M49 49L50 50L49 49z"/>
<path style="fill:#620808; stroke:none;" d="M49 50L50 51L49 50z"/>
<path style="fill:#a20e0e; stroke:none;" d="M50 52L51 53L50 52M52 53L53 54L52 53z"/>
</svg>
